<svg width="1720" height="964" viewBox="0 0 1720 964" fill="none" xmlns="http://www.w3.org/2000/svg">
<rect width="1720" height="964" fill="#122023"/>
<path d="M697.684 332.864C697.684 334.656 697.252 336.336 696.388 337.904C695.556 339.472 694.228 340.736 692.404 341.696C690.612 342.656 688.34 343.136 685.588 343.136H679.972V356H673.252V322.496H685.588C688.18 322.496 690.388 322.944 692.212 323.84C694.036 324.736 695.396 325.968 696.292 327.536C697.22 329.104 697.684 330.88 697.684 332.864ZM685.3 337.712C687.156 337.712 688.532 337.296 689.428 336.464C690.324 335.6 690.772 334.4 690.772 332.864C690.772 329.6 688.948 327.968 685.3 327.968H679.972V337.712H685.3ZM707.736 333.536C708.6 332.128 709.72 331.024 711.096 330.224C712.504 329.424 714.104 329.024 715.896 329.024V336.08H714.12C712.008 336.08 710.408 336.576 709.32 337.568C708.264 338.56 707.736 340.288 707.736 342.752V356H701.016V329.408H707.736V333.536ZM730.79 356.432C728.23 356.432 725.926 355.872 723.878 354.752C721.83 353.6 720.214 351.984 719.03 349.904C717.878 347.824 717.302 345.424 717.302 342.704C717.302 339.984 717.894 337.584 719.078 335.504C720.294 333.424 721.942 331.824 724.022 330.704C726.102 329.552 728.422 328.976 730.982 328.976C733.542 328.976 735.862 329.552 737.942 330.704C740.022 331.824 741.654 333.424 742.838 335.504C744.054 337.584 744.662 339.984 744.662 342.704C744.662 345.424 744.038 347.824 742.79 349.904C741.574 351.984 739.91 353.6 737.798 354.752C735.718 355.872 733.382 356.432 730.79 356.432ZM730.79 350.576C732.006 350.576 733.142 350.288 734.198 349.712C735.286 349.104 736.15 348.208 736.79 347.024C737.43 345.84 737.75 344.4 737.75 342.704C737.75 340.176 737.078 338.24 735.734 336.896C734.422 335.52 732.806 334.832 730.886 334.832C728.966 334.832 727.35 335.52 726.038 336.896C724.758 338.24 724.118 340.176 724.118 342.704C724.118 345.232 724.742 347.184 725.99 348.56C727.27 349.904 728.87 350.576 730.79 350.576ZM751.559 326.24C750.343 326.24 749.335 325.872 748.535 325.136C747.767 324.368 747.383 323.424 747.383 322.304C747.383 321.184 747.767 320.256 748.535 319.52C749.335 318.752 750.343 318.368 751.559 318.368C752.743 318.368 753.719 318.752 754.487 319.52C755.255 320.256 755.639 321.184 755.639 322.304C755.639 323.424 755.255 324.368 754.487 325.136C753.719 325.872 752.743 326.24 751.559 326.24ZM754.871 360.368C754.871 363.312 754.135 365.424 752.663 366.704C751.223 368.016 749.143 368.672 746.423 368.672H743.447V362.96H745.367C746.391 362.96 747.111 362.752 747.527 362.336C747.943 361.952 748.151 361.312 748.151 360.416V329.408H754.871V360.368ZM784.791 342.128C784.791 343.088 784.727 343.952 784.599 344.72H765.159C765.319 346.64 765.991 348.144 767.175 349.232C768.359 350.32 769.815 350.864 771.543 350.864C774.039 350.864 775.815 349.792 776.871 347.648H784.119C783.351 350.208 781.879 352.32 779.703 353.984C777.527 355.616 774.855 356.432 771.687 356.432C769.127 356.432 766.823 355.872 764.775 354.752C762.759 353.6 761.175 351.984 760.023 349.904C758.903 347.824 758.343 345.424 758.343 342.704C758.343 339.952 758.903 337.536 760.023 335.456C761.143 333.376 762.711 331.776 764.727 330.656C766.743 329.536 769.063 328.976 771.687 328.976C774.215 328.976 776.471 329.52 778.455 330.608C780.471 331.696 782.023 333.248 783.111 335.264C784.231 337.248 784.791 339.536 784.791 342.128ZM777.831 340.208C777.799 338.48 777.175 337.104 775.959 336.08C774.743 335.024 773.255 334.496 771.495 334.496C769.831 334.496 768.423 335.008 767.271 336.032C766.151 337.024 765.463 338.416 765.207 340.208H777.831ZM786.528 342.704C786.528 339.952 787.088 337.552 788.208 335.504C789.328 333.424 790.88 331.824 792.864 330.704C794.848 329.552 797.12 328.976 799.68 328.976C802.976 328.976 805.696 329.808 807.84 331.472C810.016 333.104 811.472 335.408 812.208 338.384H804.96C804.576 337.232 803.92 336.336 802.992 335.696C802.096 335.024 800.976 334.688 799.632 334.688C797.712 334.688 796.192 335.392 795.072 336.8C793.952 338.176 793.392 340.144 793.392 342.704C793.392 345.232 793.952 347.2 795.072 348.608C796.192 349.984 797.712 350.672 799.632 350.672C802.352 350.672 804.128 349.456 804.96 347.024H812.208C811.472 349.904 810.016 352.192 807.84 353.888C805.664 355.584 802.944 356.432 799.68 356.432C797.12 356.432 794.848 355.872 792.864 354.752C790.88 353.6 789.328 352 788.208 349.952C787.088 347.872 786.528 345.456 786.528 342.704ZM823.515 334.928V347.792C823.515 348.688 823.723 349.344 824.139 349.76C824.587 350.144 825.323 350.336 826.347 350.336H829.467V356H825.243C819.579 356 816.747 353.248 816.747 347.744V334.928H813.579V329.408H816.747V322.832H823.515V329.408H829.467V334.928H823.515ZM854.666 356.432C852.106 356.432 849.802 355.872 847.754 354.752C845.706 353.6 844.09 351.984 842.906 349.904C841.754 347.824 841.178 345.424 841.178 342.704C841.178 339.984 841.77 337.584 842.954 335.504C844.17 333.424 845.818 331.824 847.898 330.704C849.978 329.552 852.298 328.976 854.858 328.976C857.418 328.976 859.738 329.552 861.818 330.704C863.898 331.824 865.53 333.424 866.714 335.504C867.93 337.584 868.538 339.984 868.538 342.704C868.538 345.424 867.914 347.824 866.666 349.904C865.45 351.984 863.786 353.6 861.674 354.752C859.594 355.872 857.258 356.432 854.666 356.432ZM854.666 350.576C855.882 350.576 857.018 350.288 858.074 349.712C859.162 349.104 860.026 348.208 860.666 347.024C861.306 345.84 861.626 344.4 861.626 342.704C861.626 340.176 860.954 338.24 859.61 336.896C858.298 335.52 856.682 334.832 854.762 334.832C852.842 334.832 851.226 335.52 849.914 336.896C848.634 338.24 847.994 340.176 847.994 342.704C847.994 345.232 848.618 347.184 849.866 348.56C851.146 349.904 852.746 350.576 854.666 350.576ZM883.115 349.808L889.835 329.408H896.987L887.147 356H878.987L869.195 329.408H876.395L883.115 349.808ZM924.042 342.128C924.042 343.088 923.978 343.952 923.85 344.72H904.409C904.569 346.64 905.241 348.144 906.425 349.232C907.609 350.32 909.065 350.864 910.793 350.864C913.289 350.864 915.065 349.792 916.121 347.648H923.37C922.601 350.208 921.129 352.32 918.953 353.984C916.777 355.616 914.105 356.432 910.937 356.432C908.377 356.432 906.073 355.872 904.025 354.752C902.009 353.6 900.425 351.984 899.273 349.904C898.153 347.824 897.593 345.424 897.593 342.704C897.593 339.952 898.153 337.536 899.273 335.456C900.393 333.376 901.961 331.776 903.977 330.656C905.993 329.536 908.313 328.976 910.937 328.976C913.465 328.976 915.721 329.52 917.705 330.608C919.721 331.696 921.273 333.248 922.361 335.264C923.482 337.248 924.042 339.536 924.042 342.128ZM917.081 340.208C917.049 338.48 916.425 337.104 915.209 336.08C913.993 335.024 912.505 334.496 910.745 334.496C909.081 334.496 907.673 335.008 906.521 336.032C905.401 337.024 904.713 338.416 904.457 340.208H917.081ZM934.226 333.536C935.09 332.128 936.21 331.024 937.586 330.224C938.994 329.424 940.594 329.024 942.386 329.024V336.08H940.61C938.498 336.08 936.898 336.576 935.81 337.568C934.754 338.56 934.226 340.288 934.226 342.752V356H927.506V329.408H934.226V333.536ZM956.561 349.808L963.281 329.408H970.433L960.593 356H952.433L942.641 329.408H949.841L956.561 349.808ZM976.175 326.24C974.991 326.24 973.999 325.872 973.199 325.136C972.431 324.368 972.047 323.424 972.047 322.304C972.047 321.184 972.431 320.256 973.199 319.52C973.999 318.752 974.991 318.368 976.175 318.368C977.359 318.368 978.335 318.752 979.103 319.52C979.903 320.256 980.303 321.184 980.303 322.304C980.303 323.424 979.903 324.368 979.103 325.136C978.335 325.872 977.359 326.24 976.175 326.24ZM979.487 329.408V356H972.767V329.408H979.487ZM1009.41 342.128C1009.41 343.088 1009.34 343.952 1009.21 344.72H989.775C989.935 346.64 990.607 348.144 991.791 349.232C992.975 350.32 994.431 350.864 996.159 350.864C998.655 350.864 1000.43 349.792 1001.49 347.648H1008.73C1007.97 350.208 1006.49 352.32 1004.32 353.984C1002.14 355.616 999.471 356.432 996.303 356.432C993.743 356.432 991.439 355.872 989.391 354.752C987.375 353.6 985.791 351.984 984.639 349.904C983.519 347.824 982.959 345.424 982.959 342.704C982.959 339.952 983.519 337.536 984.639 335.456C985.759 333.376 987.327 331.776 989.343 330.656C991.359 329.536 993.679 328.976 996.303 328.976C998.831 328.976 1001.09 329.52 1003.07 330.608C1005.09 331.696 1006.64 333.248 1007.73 335.264C1008.85 337.248 1009.41 339.536 1009.41 342.128ZM1002.45 340.208C1002.41 338.48 1001.79 337.104 1000.57 336.08C999.359 335.024 997.871 334.496 996.111 334.496C994.447 334.496 993.039 335.008 991.887 336.032C990.767 337.024 990.079 338.416 989.823 340.208H1002.45ZM1049.74 329.408L1041.96 356H1034.71L1029.86 337.424L1025.02 356H1017.72L1009.9 329.408H1016.71L1021.42 349.664L1026.5 329.408H1033.61L1038.6 349.616L1043.3 329.408H1049.74Z" fill="white"/>
<path d="M198.951 456.308H191.385L190.085 460H186.991L193.465 441.904H196.897L203.371 460H200.251L198.951 456.308ZM198.119 453.89L195.181 445.492L192.217 453.89H198.119ZM213.414 445.44C214.541 445.44 215.546 445.674 216.43 446.142C217.332 446.61 218.034 447.303 218.536 448.222C219.039 449.141 219.29 450.25 219.29 451.55V460H216.352V451.992C216.352 450.709 216.032 449.73 215.39 449.054C214.749 448.361 213.874 448.014 212.764 448.014C211.655 448.014 210.771 448.361 210.112 449.054C209.471 449.73 209.15 450.709 209.15 451.992V460H206.186V445.674H209.15V447.312C209.636 446.723 210.251 446.263 210.996 445.934C211.759 445.605 212.565 445.44 213.414 445.44ZM228.837 452.772C228.837 451.333 229.132 450.059 229.721 448.95C230.328 447.841 231.142 446.983 232.165 446.376C233.205 445.752 234.349 445.44 235.597 445.44C236.724 445.44 237.703 445.665 238.535 446.116C239.384 446.549 240.06 447.095 240.563 447.754V445.674H243.553V460H240.563V457.868C240.06 458.544 239.376 459.107 238.509 459.558C237.642 460.009 236.654 460.234 235.545 460.234C234.314 460.234 233.188 459.922 232.165 459.298C231.142 458.657 230.328 457.773 229.721 456.646C229.132 455.502 228.837 454.211 228.837 452.772ZM240.563 452.824C240.563 451.836 240.355 450.978 239.939 450.25C239.54 449.522 239.012 448.967 238.353 448.586C237.694 448.205 236.984 448.014 236.221 448.014C235.458 448.014 234.748 448.205 234.089 448.586C233.43 448.95 232.893 449.496 232.477 450.224C232.078 450.935 231.879 451.784 231.879 452.772C231.879 453.76 232.078 454.627 232.477 455.372C232.893 456.117 233.43 456.689 234.089 457.088C234.765 457.469 235.476 457.66 236.221 457.66C236.984 457.66 237.694 457.469 238.353 457.088C239.012 456.707 239.54 456.152 239.939 455.424C240.355 454.679 240.563 453.812 240.563 452.824ZM250.41 447.78C250.913 447.121 251.597 446.567 252.464 446.116C253.331 445.665 254.31 445.44 255.402 445.44C256.65 445.44 257.785 445.752 258.808 446.376C259.848 446.983 260.663 447.841 261.252 448.95C261.841 450.059 262.136 451.333 262.136 452.772C262.136 454.211 261.841 455.502 261.252 456.646C260.663 457.773 259.848 458.657 258.808 459.298C257.785 459.922 256.65 460.234 255.402 460.234C254.31 460.234 253.339 460.017 252.49 459.584C251.641 459.133 250.947 458.579 250.41 457.92V466.812H247.446V445.674H250.41V447.78ZM259.12 452.772C259.12 451.784 258.912 450.935 258.496 450.224C258.097 449.496 257.56 448.95 256.884 448.586C256.225 448.205 255.515 448.014 254.752 448.014C254.007 448.014 253.296 448.205 252.62 448.586C251.961 448.967 251.424 449.522 251.008 450.25C250.609 450.978 250.41 451.836 250.41 452.824C250.41 453.812 250.609 454.679 251.008 455.424C251.424 456.152 251.961 456.707 252.62 457.088C253.296 457.469 254.007 457.66 254.752 457.66C255.515 457.66 256.225 457.469 256.884 457.088C257.56 456.689 258.097 456.117 258.496 455.372C258.912 454.627 259.12 453.76 259.12 452.772ZM268.031 447.78C268.534 447.121 269.219 446.567 270.085 446.116C270.952 445.665 271.931 445.44 273.023 445.44C274.271 445.44 275.407 445.752 276.429 446.376C277.469 446.983 278.284 447.841 278.873 448.95C279.463 450.059 279.757 451.333 279.757 452.772C279.757 454.211 279.463 455.502 278.873 456.646C278.284 457.773 277.469 458.657 276.429 459.298C275.407 459.922 274.271 460.234 273.023 460.234C271.931 460.234 270.961 460.017 270.111 459.584C269.262 459.133 268.569 458.579 268.031 457.92V466.812H265.067V445.674H268.031V447.78ZM276.741 452.772C276.741 451.784 276.533 450.935 276.117 450.224C275.719 449.496 275.181 448.95 274.505 448.586C273.847 448.205 273.136 448.014 272.373 448.014C271.628 448.014 270.917 448.205 270.241 448.586C269.583 448.967 269.045 449.522 268.629 450.25C268.231 450.978 268.031 451.836 268.031 452.824C268.031 453.812 268.231 454.679 268.629 455.424C269.045 456.152 269.583 456.707 270.241 457.088C270.917 457.469 271.628 457.66 272.373 457.66C273.136 457.66 273.847 457.469 274.505 457.088C275.181 456.689 275.719 456.117 276.117 455.372C276.533 454.627 276.741 453.76 276.741 452.772ZM288.454 452.772C288.454 451.333 288.749 450.059 289.338 448.95C289.945 447.841 290.76 446.983 291.782 446.376C292.822 445.752 293.966 445.44 295.214 445.44C296.341 445.44 297.32 445.665 298.152 446.116C299.002 446.549 299.678 447.095 300.18 447.754V445.674H303.17V460H300.18V457.868C299.678 458.544 298.993 459.107 298.126 459.558C297.26 460.009 296.272 460.234 295.162 460.234C293.932 460.234 292.805 459.922 291.782 459.298C290.76 458.657 289.945 457.773 289.338 456.646C288.749 455.502 288.454 454.211 288.454 452.772ZM300.18 452.824C300.18 451.836 299.972 450.978 299.556 450.25C299.158 449.522 298.629 448.967 297.97 448.586C297.312 448.205 296.601 448.014 295.838 448.014C295.076 448.014 294.365 448.205 293.706 448.586C293.048 448.95 292.51 449.496 292.094 450.224C291.696 450.935 291.496 451.784 291.496 452.772C291.496 453.76 291.696 454.627 292.094 455.372C292.51 456.117 293.048 456.689 293.706 457.088C294.382 457.469 295.093 457.66 295.838 457.66C296.601 457.66 297.312 457.469 297.97 457.088C298.629 456.707 299.158 456.152 299.556 455.424C299.972 454.679 300.18 453.812 300.18 452.824ZM314.291 445.44C315.418 445.44 316.423 445.674 317.307 446.142C318.209 446.61 318.911 447.303 319.413 448.222C319.916 449.141 320.167 450.25 320.167 451.55V460H317.229V451.992C317.229 450.709 316.909 449.73 316.267 449.054C315.626 448.361 314.751 448.014 313.641 448.014C312.532 448.014 311.648 448.361 310.989 449.054C310.348 449.73 310.027 450.709 310.027 451.992V460H307.063V445.674H310.027V447.312C310.513 446.723 311.128 446.263 311.873 445.934C312.636 445.605 313.442 445.44 314.291 445.44ZM322.96 452.772C322.96 451.333 323.255 450.059 323.844 448.95C324.451 447.841 325.265 446.983 326.288 446.376C327.328 445.752 328.481 445.44 329.746 445.44C330.682 445.44 331.601 445.648 332.502 446.064C333.421 446.463 334.149 447 334.686 447.676V440.76H337.676V460H334.686V457.842C334.201 458.535 333.525 459.107 332.658 459.558C331.809 460.009 330.829 460.234 329.72 460.234C328.472 460.234 327.328 459.922 326.288 459.298C325.265 458.657 324.451 457.773 323.844 456.646C323.255 455.502 322.96 454.211 322.96 452.772ZM334.686 452.824C334.686 451.836 334.478 450.978 334.062 450.25C333.663 449.522 333.135 448.967 332.476 448.586C331.817 448.205 331.107 448.014 330.344 448.014C329.581 448.014 328.871 448.205 328.212 448.586C327.553 448.95 327.016 449.496 326.6 450.224C326.201 450.935 326.002 451.784 326.002 452.772C326.002 453.76 326.201 454.627 326.6 455.372C327.016 456.117 327.553 456.689 328.212 457.088C328.888 457.469 329.599 457.66 330.344 457.66C331.107 457.66 331.817 457.469 332.476 457.088C333.135 456.707 333.663 456.152 334.062 455.424C334.478 454.679 334.686 453.812 334.686 452.824ZM347.335 452.772C347.335 451.333 347.63 450.059 348.219 448.95C348.826 447.841 349.64 446.983 350.663 446.376C351.703 445.752 352.847 445.44 354.095 445.44C355.222 445.44 356.201 445.665 357.033 446.116C357.882 446.549 358.558 447.095 359.061 447.754V445.674H362.051V460H359.061V457.868C358.558 458.544 357.874 459.107 357.007 459.558C356.14 460.009 355.152 460.234 354.043 460.234C352.812 460.234 351.686 459.922 350.663 459.298C349.64 458.657 348.826 457.773 348.219 456.646C347.63 455.502 347.335 454.211 347.335 452.772ZM359.061 452.824C359.061 451.836 358.853 450.978 358.437 450.25C358.038 449.522 357.51 448.967 356.851 448.586C356.192 448.205 355.482 448.014 354.719 448.014C353.956 448.014 353.246 448.205 352.587 448.586C351.928 448.95 351.391 449.496 350.975 450.224C350.576 450.935 350.377 451.784 350.377 452.772C350.377 453.76 350.576 454.627 350.975 455.372C351.391 456.117 351.928 456.689 352.587 457.088C353.263 457.469 353.974 457.66 354.719 457.66C355.482 457.66 356.192 457.469 356.851 457.088C357.51 456.707 358.038 456.152 358.437 455.424C358.853 454.679 359.061 453.812 359.061 452.824ZM375.662 447.754C376.095 447.026 376.667 446.463 377.378 446.064C378.106 445.648 378.964 445.44 379.952 445.44V448.508H379.198C378.037 448.508 377.153 448.803 376.546 449.392C375.957 449.981 375.662 451.004 375.662 452.46V460H372.698V445.674H375.662V447.754ZM395.807 452.486C395.807 453.023 395.772 453.509 395.703 453.942H384.757C384.843 455.086 385.268 456.005 386.031 456.698C386.793 457.391 387.729 457.738 388.839 457.738C390.433 457.738 391.56 457.071 392.219 455.736H395.417C394.983 457.053 394.195 458.137 393.051 458.986C391.924 459.818 390.52 460.234 388.839 460.234C387.469 460.234 386.239 459.931 385.147 459.324C384.072 458.7 383.223 457.833 382.599 456.724C381.992 455.597 381.689 454.297 381.689 452.824C381.689 451.351 381.983 450.059 382.573 448.95C383.179 447.823 384.02 446.957 385.095 446.35C386.187 445.743 387.435 445.44 388.839 445.44C390.191 445.44 391.395 445.735 392.453 446.324C393.51 446.913 394.333 447.745 394.923 448.82C395.512 449.877 395.807 451.099 395.807 452.486ZM392.713 451.55C392.695 450.458 392.305 449.583 391.543 448.924C390.78 448.265 389.835 447.936 388.709 447.936C387.686 447.936 386.811 448.265 386.083 448.924C385.355 449.565 384.921 450.441 384.783 451.55H392.713ZM403.923 460.234C402.797 460.234 401.783 460.035 400.881 459.636C399.997 459.22 399.295 458.665 398.775 457.972C398.255 457.261 397.978 456.473 397.943 455.606H401.011C401.063 456.213 401.349 456.724 401.869 457.14C402.407 457.539 403.074 457.738 403.871 457.738C404.703 457.738 405.345 457.582 405.795 457.27C406.263 456.941 406.497 456.525 406.497 456.022C406.497 455.485 406.237 455.086 405.717 454.826C405.215 454.566 404.409 454.28 403.299 453.968C402.225 453.673 401.349 453.387 400.673 453.11C399.997 452.833 399.408 452.408 398.905 451.836C398.42 451.264 398.177 450.51 398.177 449.574C398.177 448.811 398.403 448.118 398.853 447.494C399.304 446.853 399.945 446.35 400.777 445.986C401.627 445.622 402.597 445.44 403.689 445.44C405.319 445.44 406.627 445.856 407.615 446.688C408.621 447.503 409.158 448.621 409.227 450.042H406.263C406.211 449.401 405.951 448.889 405.483 448.508C405.015 448.127 404.383 447.936 403.585 447.936C402.805 447.936 402.207 448.083 401.791 448.378C401.375 448.673 401.167 449.063 401.167 449.548C401.167 449.929 401.306 450.25 401.583 450.51C401.861 450.77 402.199 450.978 402.597 451.134C402.996 451.273 403.585 451.455 404.365 451.68C405.405 451.957 406.255 452.243 406.913 452.538C407.589 452.815 408.17 453.231 408.655 453.786C409.141 454.341 409.392 455.077 409.409 455.996C409.409 456.811 409.184 457.539 408.733 458.18C408.283 458.821 407.641 459.324 406.809 459.688C405.995 460.052 405.033 460.234 403.923 460.234ZM415.576 447.78C416.079 447.121 416.763 446.567 417.63 446.116C418.497 445.665 419.476 445.44 420.568 445.44C421.816 445.44 422.951 445.752 423.974 446.376C425.014 446.983 425.829 447.841 426.418 448.95C427.007 450.059 427.302 451.333 427.302 452.772C427.302 454.211 427.007 455.502 426.418 456.646C425.829 457.773 425.014 458.657 423.974 459.298C422.951 459.922 421.816 460.234 420.568 460.234C419.476 460.234 418.505 460.017 417.656 459.584C416.807 459.133 416.113 458.579 415.576 457.92V466.812H412.612V445.674H415.576V447.78ZM424.286 452.772C424.286 451.784 424.078 450.935 423.662 450.224C423.263 449.496 422.726 448.95 422.05 448.586C421.391 448.205 420.681 448.014 419.918 448.014C419.173 448.014 418.462 448.205 417.786 448.586C417.127 448.967 416.59 449.522 416.174 450.25C415.775 450.978 415.576 451.836 415.576 452.824C415.576 453.812 415.775 454.679 416.174 455.424C416.59 456.152 417.127 456.707 417.786 457.088C418.462 457.469 419.173 457.66 419.918 457.66C420.681 457.66 421.391 457.469 422.05 457.088C422.726 456.689 423.263 456.117 423.662 455.372C424.078 454.627 424.286 453.76 424.286 452.772ZM436.447 460.234C435.095 460.234 433.873 459.931 432.781 459.324C431.689 458.7 430.831 457.833 430.207 456.724C429.583 455.597 429.271 454.297 429.271 452.824C429.271 451.368 429.592 450.077 430.233 448.95C430.875 447.823 431.75 446.957 432.859 446.35C433.969 445.743 435.208 445.44 436.577 445.44C437.947 445.44 439.186 445.743 440.295 446.35C441.405 446.957 442.28 447.823 442.921 448.95C443.563 450.077 443.883 451.368 443.883 452.824C443.883 454.28 443.554 455.571 442.895 456.698C442.237 457.825 441.335 458.7 440.191 459.324C439.065 459.931 437.817 460.234 436.447 460.234ZM436.447 457.66C437.21 457.66 437.921 457.478 438.579 457.114C439.255 456.75 439.801 456.204 440.217 455.476C440.633 454.748 440.841 453.864 440.841 452.824C440.841 451.784 440.642 450.909 440.243 450.198C439.845 449.47 439.316 448.924 438.657 448.56C437.999 448.196 437.288 448.014 436.525 448.014C435.763 448.014 435.052 448.196 434.393 448.56C433.752 448.924 433.241 449.47 432.859 450.198C432.478 450.909 432.287 451.784 432.287 452.824C432.287 454.367 432.677 455.563 433.457 456.412C434.255 457.244 435.251 457.66 436.447 457.66ZM454.041 445.44C455.168 445.44 456.173 445.674 457.057 446.142C457.959 446.61 458.661 447.303 459.163 448.222C459.666 449.141 459.917 450.25 459.917 451.55V460H456.979V451.992C456.979 450.709 456.659 449.73 456.017 449.054C455.376 448.361 454.501 448.014 453.391 448.014C452.282 448.014 451.398 448.361 450.739 449.054C450.098 449.73 449.777 450.709 449.777 451.992V460H446.813V445.674H449.777V447.312C450.263 446.723 450.878 446.263 451.623 445.934C452.386 445.605 453.192 445.44 454.041 445.44ZM468.898 460.234C467.771 460.234 466.757 460.035 465.856 459.636C464.972 459.22 464.27 458.665 463.75 457.972C463.23 457.261 462.953 456.473 462.918 455.606H465.986C466.038 456.213 466.324 456.724 466.844 457.14C467.381 457.539 468.049 457.738 468.846 457.738C469.678 457.738 470.319 457.582 470.77 457.27C471.238 456.941 471.472 456.525 471.472 456.022C471.472 455.485 471.212 455.086 470.692 454.826C470.189 454.566 469.383 454.28 468.274 453.968C467.199 453.673 466.324 453.387 465.648 453.11C464.972 452.833 464.383 452.408 463.88 451.836C463.395 451.264 463.152 450.51 463.152 449.574C463.152 448.811 463.377 448.118 463.828 447.494C464.279 446.853 464.92 446.35 465.752 445.986C466.601 445.622 467.572 445.44 468.664 445.44C470.293 445.44 471.602 445.856 472.59 446.688C473.595 447.503 474.133 448.621 474.202 450.042H471.238C471.186 449.401 470.926 448.889 470.458 448.508C469.99 448.127 469.357 447.936 468.56 447.936C467.78 447.936 467.182 448.083 466.766 448.378C466.35 448.673 466.142 449.063 466.142 449.548C466.142 449.929 466.281 450.25 466.558 450.51C466.835 450.77 467.173 450.978 467.572 451.134C467.971 451.273 468.56 451.455 469.34 451.68C470.38 451.957 471.229 452.243 471.888 452.538C472.564 452.815 473.145 453.231 473.63 453.786C474.115 454.341 474.367 455.077 474.384 455.996C474.384 456.811 474.159 457.539 473.708 458.18C473.257 458.821 472.616 459.324 471.784 459.688C470.969 460.052 470.007 460.234 468.898 460.234ZM479.095 443.776C478.557 443.776 478.107 443.594 477.743 443.23C477.379 442.866 477.197 442.415 477.197 441.878C477.197 441.341 477.379 440.89 477.743 440.526C478.107 440.162 478.557 439.98 479.095 439.98C479.615 439.98 480.057 440.162 480.421 440.526C480.785 440.89 480.967 441.341 480.967 441.878C480.967 442.415 480.785 442.866 480.421 443.23C480.057 443.594 479.615 443.776 479.095 443.776ZM480.551 445.674V460H477.587V445.674H480.551ZM489.98 457.348L494.036 445.674H497.182L491.722 460H488.186L482.752 445.674H485.924L489.98 457.348ZM512.553 452.486C512.553 453.023 512.518 453.509 512.449 453.942H501.503C501.589 455.086 502.014 456.005 502.777 456.698C503.539 457.391 504.475 457.738 505.585 457.738C507.179 457.738 508.306 457.071 508.965 455.736H512.163C511.729 457.053 510.941 458.137 509.797 458.986C508.67 459.818 507.266 460.234 505.585 460.234C504.215 460.234 502.985 459.931 501.893 459.324C500.818 458.7 499.969 457.833 499.345 456.724C498.738 455.597 498.435 454.297 498.435 452.824C498.435 451.351 498.729 450.059 499.319 448.95C499.925 447.823 500.766 446.957 501.841 446.35C502.933 445.743 504.181 445.44 505.585 445.44C506.937 445.44 508.141 445.735 509.199 446.324C510.256 446.913 511.079 447.745 511.669 448.82C512.258 449.877 512.553 451.099 512.553 452.486ZM509.459 451.55C509.441 450.458 509.051 449.583 508.289 448.924C507.526 448.265 506.581 447.936 505.455 447.936C504.432 447.936 503.557 448.265 502.829 448.924C502.101 449.565 501.667 450.441 501.529 451.55H509.459ZM541.463 445.674L537.017 460H533.897L531.011 449.418L528.125 460H525.005L520.533 445.674H523.549L526.539 457.192L529.581 445.674H532.675L535.587 457.14L538.551 445.674H541.463ZM556.809 452.486C556.809 453.023 556.774 453.509 556.705 453.942H545.759C545.845 455.086 546.27 456.005 547.033 456.698C547.795 457.391 548.731 457.738 549.841 457.738C551.435 457.738 552.562 457.071 553.221 455.736H556.419C555.985 457.053 555.197 458.137 554.053 458.986C552.926 459.818 551.522 460.234 549.841 460.234C548.471 460.234 547.241 459.931 546.149 459.324C545.074 458.7 544.225 457.833 543.601 456.724C542.994 455.597 542.691 454.297 542.691 452.824C542.691 451.351 542.985 450.059 543.575 448.95C544.181 447.823 545.022 446.957 546.097 446.35C547.189 445.743 548.437 445.44 549.841 445.44C551.193 445.44 552.397 445.735 553.455 446.324C554.512 446.913 555.335 447.745 555.925 448.82C556.514 449.877 556.809 451.099 556.809 452.486ZM553.715 451.55C553.697 450.458 553.307 449.583 552.545 448.924C551.782 448.265 550.837 447.936 549.711 447.936C548.688 447.936 547.813 448.265 547.085 448.924C546.357 449.565 545.923 450.441 545.785 451.55H553.715ZM562.689 447.806C563.192 447.113 563.877 446.549 564.743 446.116C565.627 445.665 566.607 445.44 567.681 445.44C568.947 445.44 570.091 445.743 571.113 446.35C572.136 446.957 572.942 447.823 573.531 448.95C574.121 450.059 574.415 451.333 574.415 452.772C574.415 454.211 574.121 455.502 573.531 456.646C572.942 457.773 572.127 458.657 571.087 459.298C570.065 459.922 568.929 460.234 567.681 460.234C566.572 460.234 565.584 460.017 564.717 459.584C563.868 459.151 563.192 458.596 562.689 457.92V460H559.725V440.76H562.689V447.806ZM571.399 452.772C571.399 451.784 571.191 450.935 570.775 450.224C570.377 449.496 569.839 448.95 569.163 448.586C568.505 448.205 567.794 448.014 567.031 448.014C566.286 448.014 565.575 448.205 564.899 448.586C564.241 448.967 563.703 449.522 563.287 450.25C562.889 450.978 562.689 451.836 562.689 452.824C562.689 453.812 562.889 454.679 563.287 455.424C563.703 456.152 564.241 456.707 564.899 457.088C565.575 457.469 566.286 457.66 567.031 457.66C567.794 457.66 568.505 457.469 569.163 457.088C569.839 456.689 570.377 456.117 570.775 455.372C571.191 454.627 571.399 453.76 571.399 452.772ZM582.546 460.234C581.42 460.234 580.406 460.035 579.504 459.636C578.62 459.22 577.918 458.665 577.398 457.972C576.878 457.261 576.601 456.473 576.566 455.606H579.634C579.686 456.213 579.972 456.724 580.492 457.14C581.03 457.539 581.697 457.738 582.494 457.738C583.326 457.738 583.968 457.582 584.418 457.27C584.886 456.941 585.12 456.525 585.12 456.022C585.12 455.485 584.86 455.086 584.34 454.826C583.838 454.566 583.032 454.28 581.922 453.968C580.848 453.673 579.972 453.387 579.296 453.11C578.62 452.833 578.031 452.408 577.528 451.836C577.043 451.264 576.8 450.51 576.8 449.574C576.8 448.811 577.026 448.118 577.476 447.494C577.927 446.853 578.568 446.35 579.4 445.986C580.25 445.622 581.22 445.44 582.312 445.44C583.942 445.44 585.25 445.856 586.238 446.688C587.244 447.503 587.781 448.621 587.85 450.042H584.886C584.834 449.401 584.574 448.889 584.106 448.508C583.638 448.127 583.006 447.936 582.208 447.936C581.428 447.936 580.83 448.083 580.414 448.378C579.998 448.673 579.79 449.063 579.79 449.548C579.79 449.929 579.929 450.25 580.206 450.51C580.484 450.77 580.822 450.978 581.22 451.134C581.619 451.273 582.208 451.455 582.988 451.68C584.028 451.957 584.878 452.243 585.536 452.538C586.212 452.815 586.793 453.231 587.278 453.786C587.764 454.341 588.015 455.077 588.032 455.996C588.032 456.811 587.807 457.539 587.356 458.18C586.906 458.821 586.264 459.324 585.432 459.688C584.618 460.052 583.656 460.234 582.546 460.234ZM592.743 443.776C592.206 443.776 591.755 443.594 591.391 443.23C591.027 442.866 590.845 442.415 590.845 441.878C590.845 441.341 591.027 440.89 591.391 440.526C591.755 440.162 592.206 439.98 592.743 439.98C593.263 439.98 593.705 440.162 594.069 440.526C594.433 440.89 594.615 441.341 594.615 441.878C594.615 442.415 594.433 442.866 594.069 443.23C593.705 443.594 593.263 443.776 592.743 443.776ZM594.199 445.674V460H591.235V445.674H594.199ZM601.549 448.092V456.022C601.549 456.559 601.67 456.949 601.913 457.192C602.173 457.417 602.606 457.53 603.213 457.53H605.033V460H602.693C601.358 460 600.335 459.688 599.625 459.064C598.914 458.44 598.559 457.426 598.559 456.022V448.092H596.869V445.674H598.559V442.112H601.549V445.674H605.033V448.092H601.549ZM620.894 452.486C620.894 453.023 620.86 453.509 620.79 453.942H609.844C609.931 455.086 610.356 456.005 611.118 456.698C611.881 457.391 612.817 457.738 613.926 457.738C615.521 457.738 616.648 457.071 617.306 455.736H620.504C620.071 457.053 619.282 458.137 618.138 458.986C617.012 459.818 615.608 460.234 613.926 460.234C612.557 460.234 611.326 459.931 610.234 459.324C609.16 458.7 608.31 457.833 607.686 456.724C607.08 455.597 606.776 454.297 606.776 452.824C606.776 451.351 607.071 450.059 607.66 448.95C608.267 447.823 609.108 446.957 610.182 446.35C611.274 445.743 612.522 445.44 613.926 445.44C615.278 445.44 616.483 445.735 617.54 446.324C618.598 446.913 619.421 447.745 620.01 448.82C620.6 449.877 620.894 451.099 620.894 452.486ZM617.8 451.55C617.783 450.458 617.393 449.583 616.63 448.924C615.868 448.265 614.923 447.936 613.796 447.936C612.774 447.936 611.898 448.265 611.17 448.924C610.442 449.565 610.009 450.441 609.87 451.55H617.8ZM634.023 448.092V456.022C634.023 456.559 634.145 456.949 634.387 457.192C634.647 457.417 635.081 457.53 635.687 457.53H637.507V460H635.167C633.833 460 632.81 459.688 632.099 459.064C631.389 458.44 631.033 457.426 631.033 456.022V448.092H629.343V445.674H631.033V442.112H634.023V445.674H637.507V448.092H634.023ZM647.649 445.44C648.741 445.44 649.712 445.674 650.561 446.142C651.428 446.61 652.104 447.303 652.589 448.222C653.092 449.141 653.343 450.25 653.343 451.55V460H650.405V451.992C650.405 450.709 650.084 449.73 649.443 449.054C648.802 448.361 647.926 448.014 646.817 448.014C645.708 448.014 644.824 448.361 644.165 449.054C643.524 449.73 643.203 450.709 643.203 451.992V460H640.239V440.76H643.203V447.338C643.706 446.731 644.338 446.263 645.101 445.934C645.881 445.605 646.73 445.44 647.649 445.44ZM656.136 452.772C656.136 451.333 656.43 450.059 657.02 448.95C657.626 447.841 658.441 446.983 659.464 446.376C660.504 445.752 661.648 445.44 662.896 445.44C664.022 445.44 665.002 445.665 665.834 446.116C666.683 446.549 667.359 447.095 667.862 447.754V445.674H670.852V460H667.862V457.868C667.359 458.544 666.674 459.107 665.808 459.558C664.941 460.009 663.953 460.234 662.844 460.234C661.613 460.234 660.486 459.922 659.464 459.298C658.441 458.657 657.626 457.773 657.02 456.646C656.43 455.502 656.136 454.211 656.136 452.772ZM667.862 452.824C667.862 451.836 667.654 450.978 667.238 450.25C666.839 449.522 666.31 448.967 665.652 448.586C664.993 448.205 664.282 448.014 663.52 448.014C662.757 448.014 662.046 448.205 661.388 448.586C660.729 448.95 660.192 449.496 659.776 450.224C659.377 450.935 659.178 451.784 659.178 452.772C659.178 453.76 659.377 454.627 659.776 455.372C660.192 456.117 660.729 456.689 661.388 457.088C662.064 457.469 662.774 457.66 663.52 457.66C664.282 457.66 664.993 457.469 665.652 457.088C666.31 456.707 666.839 456.152 667.238 455.424C667.654 454.679 667.862 453.812 667.862 452.824ZM678.203 448.092V456.022C678.203 456.559 678.324 456.949 678.567 457.192C678.827 457.417 679.26 457.53 679.867 457.53H681.687V460H679.347C678.012 460 676.99 459.688 676.279 459.064C675.568 458.44 675.213 457.426 675.213 456.022V448.092H673.523V445.674H675.213V442.112H678.203V445.674H681.687V448.092H678.203ZM710.413 445.674L705.967 460H702.847L699.961 449.418L697.075 460H693.955L689.483 445.674H692.499L695.489 457.192L698.531 445.674H701.625L704.537 457.14L707.501 445.674H710.413ZM718.842 460.234C717.49 460.234 716.268 459.931 715.176 459.324C714.084 458.7 713.226 457.833 712.602 456.724C711.978 455.597 711.666 454.297 711.666 452.824C711.666 451.368 711.986 450.077 712.628 448.95C713.269 447.823 714.144 446.957 715.254 446.35C716.363 445.743 717.602 445.44 718.972 445.44C720.341 445.44 721.58 445.743 722.69 446.35C723.799 446.957 724.674 447.823 725.316 448.95C725.957 450.077 726.278 451.368 726.278 452.824C726.278 454.28 725.948 455.571 725.29 456.698C724.631 457.825 723.73 458.7 722.586 459.324C721.459 459.931 720.211 460.234 718.842 460.234ZM718.842 457.66C719.604 457.66 720.315 457.478 720.974 457.114C721.65 456.75 722.196 456.204 722.612 455.476C723.028 454.748 723.236 453.864 723.236 452.824C723.236 451.784 723.036 450.909 722.638 450.198C722.239 449.47 721.71 448.924 721.052 448.56C720.393 448.196 719.682 448.014 718.92 448.014C718.157 448.014 717.446 448.196 716.788 448.56C716.146 448.924 715.635 449.47 715.254 450.198C714.872 450.909 714.682 451.784 714.682 452.824C714.682 454.367 715.072 455.563 715.852 456.412C716.649 457.244 717.646 457.66 718.842 457.66ZM742.182 445.674V460H739.218V458.31C738.75 458.899 738.134 459.367 737.372 459.714C736.626 460.043 735.829 460.208 734.98 460.208C733.853 460.208 732.839 459.974 731.938 459.506C731.054 459.038 730.352 458.345 729.832 457.426C729.329 456.507 729.078 455.398 729.078 454.098V445.674H732.016V453.656C732.016 454.939 732.336 455.927 732.978 456.62C733.619 457.296 734.494 457.634 735.604 457.634C736.713 457.634 737.588 457.296 738.23 456.62C738.888 455.927 739.218 454.939 739.218 453.656V445.674H742.182ZM749.057 440.76V460H746.093V440.76H749.057ZM751.96 452.772C751.96 451.333 752.255 450.059 752.844 448.95C753.451 447.841 754.265 446.983 755.288 446.376C756.328 445.752 757.481 445.44 758.746 445.44C759.682 445.44 760.601 445.648 761.502 446.064C762.421 446.463 763.149 447 763.686 447.676V440.76H766.676V460H763.686V457.842C763.201 458.535 762.525 459.107 761.658 459.558C760.809 460.009 759.829 460.234 758.72 460.234C757.472 460.234 756.328 459.922 755.288 459.298C754.265 458.657 753.451 457.773 752.844 456.646C752.255 455.502 751.96 454.211 751.96 452.772ZM763.686 452.824C763.686 451.836 763.478 450.978 763.062 450.25C762.663 449.522 762.135 448.967 761.476 448.586C760.817 448.205 760.107 448.014 759.344 448.014C758.581 448.014 757.871 448.205 757.212 448.586C756.553 448.95 756.016 449.496 755.6 450.224C755.201 450.935 755.002 451.784 755.002 452.772C755.002 453.76 755.201 454.627 755.6 455.372C756.016 456.117 756.553 456.689 757.212 457.088C757.888 457.469 758.599 457.66 759.344 457.66C760.107 457.66 760.817 457.469 761.476 457.088C762.135 456.707 762.663 456.152 763.062 455.424C763.478 454.679 763.686 453.812 763.686 452.824ZM784.733 445.44C785.825 445.44 786.796 445.674 787.645 446.142C788.512 446.61 789.188 447.303 789.673 448.222C790.176 449.141 790.427 450.25 790.427 451.55V460H787.489V451.992C787.489 450.709 787.168 449.73 786.527 449.054C785.886 448.361 785.01 448.014 783.901 448.014C782.792 448.014 781.908 448.361 781.249 449.054C780.608 449.73 780.287 450.709 780.287 451.992V460H777.323V440.76H780.287V447.338C780.79 446.731 781.422 446.263 782.185 445.934C782.965 445.605 783.814 445.44 784.733 445.44ZM807.338 452.486C807.338 453.023 807.303 453.509 807.234 453.942H796.288C796.374 455.086 796.799 456.005 797.562 456.698C798.324 457.391 799.26 457.738 800.37 457.738C801.964 457.738 803.091 457.071 803.75 455.736H806.948C806.514 457.053 805.726 458.137 804.582 458.986C803.455 459.818 802.051 460.234 800.37 460.234C799 460.234 797.77 459.931 796.678 459.324C795.603 458.7 794.754 457.833 794.13 456.724C793.523 455.597 793.22 454.297 793.22 452.824C793.22 451.351 793.514 450.059 794.104 448.95C794.71 447.823 795.551 446.957 796.626 446.35C797.718 445.743 798.966 445.44 800.37 445.44C801.722 445.44 802.926 445.735 803.984 446.324C805.041 446.913 805.864 447.745 806.454 448.82C807.043 449.877 807.338 451.099 807.338 452.486ZM804.244 451.55C804.226 450.458 803.836 449.583 803.074 448.924C802.311 448.265 801.366 447.936 800.24 447.936C799.217 447.936 798.342 448.265 797.614 448.924C796.886 449.565 796.452 450.441 796.314 451.55H804.244ZM813.219 440.76V460H810.255V440.76H813.219ZM820.074 447.78C820.577 447.121 821.261 446.567 822.128 446.116C822.995 445.665 823.974 445.44 825.066 445.44C826.314 445.44 827.449 445.752 828.472 446.376C829.512 446.983 830.327 447.841 830.916 448.95C831.505 450.059 831.8 451.333 831.8 452.772C831.8 454.211 831.505 455.502 830.916 456.646C830.327 457.773 829.512 458.657 828.472 459.298C827.449 459.922 826.314 460.234 825.066 460.234C823.974 460.234 823.003 460.017 822.154 459.584C821.305 459.133 820.611 458.579 820.074 457.92V466.812H817.11V445.674H820.074V447.78ZM828.784 452.772C828.784 451.784 828.576 450.935 828.16 450.224C827.761 449.496 827.224 448.95 826.548 448.586C825.889 448.205 825.179 448.014 824.416 448.014C823.671 448.014 822.96 448.205 822.284 448.586C821.625 448.967 821.088 449.522 820.672 450.25C820.273 450.978 820.074 451.836 820.074 452.824C820.074 453.812 820.273 454.679 820.672 455.424C821.088 456.152 821.625 456.707 822.284 457.088C822.96 457.469 823.671 457.66 824.416 457.66C825.179 457.66 825.889 457.469 826.548 457.088C827.224 456.689 827.761 456.117 828.16 455.372C828.576 454.627 828.784 453.76 828.784 452.772ZM844.943 448.092V456.022C844.943 456.559 845.064 456.949 845.307 457.192C845.567 457.417 846 457.53 846.607 457.53H848.427V460H846.087C844.752 460 843.73 459.688 843.019 459.064C842.308 458.44 841.953 457.426 841.953 456.022V448.092H840.263V445.674H841.953V442.112H844.943V445.674H848.427V448.092H844.943ZM854.123 447.754C854.556 447.026 855.128 446.463 855.839 446.064C856.567 445.648 857.425 445.44 858.413 445.44V448.508H857.659C856.498 448.508 855.614 448.803 855.007 449.392C854.418 449.981 854.123 451.004 854.123 452.46V460H851.159V445.674H854.123V447.754ZM860.15 452.772C860.15 451.333 860.444 450.059 861.034 448.95C861.64 447.841 862.455 446.983 863.478 446.376C864.518 445.752 865.662 445.44 866.91 445.44C868.036 445.44 869.016 445.665 869.848 446.116C870.697 446.549 871.373 447.095 871.876 447.754V445.674H874.866V460H871.876V457.868C871.373 458.544 870.688 459.107 869.822 459.558C868.955 460.009 867.967 460.234 866.858 460.234C865.627 460.234 864.5 459.922 863.478 459.298C862.455 458.657 861.64 457.773 861.034 456.646C860.444 455.502 860.15 454.211 860.15 452.772ZM871.876 452.824C871.876 451.836 871.668 450.978 871.252 450.25C870.853 449.522 870.324 448.967 869.666 448.586C869.007 448.205 868.296 448.014 867.534 448.014C866.771 448.014 866.06 448.205 865.402 448.586C864.743 448.95 864.206 449.496 863.79 450.224C863.391 450.935 863.192 451.784 863.192 452.772C863.192 453.76 863.391 454.627 863.79 455.372C864.206 456.117 864.743 456.689 865.402 457.088C866.078 457.469 866.788 457.66 867.534 457.66C868.296 457.66 869.007 457.469 869.666 457.088C870.324 456.707 870.853 456.152 871.252 455.424C871.668 454.679 871.876 453.812 871.876 452.824ZM884.297 457.348L888.353 445.674H891.499L886.039 460H882.503L877.069 445.674H880.241L884.297 457.348ZM906.869 452.486C906.869 453.023 906.834 453.509 906.765 453.942H895.819C895.906 455.086 896.33 456.005 897.093 456.698C897.856 457.391 898.792 457.738 899.901 457.738C901.496 457.738 902.622 457.071 903.281 455.736H906.479C906.046 457.053 905.257 458.137 904.113 458.986C902.986 459.818 901.582 460.234 899.901 460.234C898.532 460.234 897.301 459.931 896.209 459.324C895.134 458.7 894.285 457.833 893.661 456.724C893.054 455.597 892.751 454.297 892.751 452.824C892.751 451.351 893.046 450.059 893.635 448.95C894.242 447.823 895.082 446.957 896.157 446.35C897.249 445.743 898.497 445.44 899.901 445.44C901.253 445.44 902.458 445.735 903.515 446.324C904.572 446.913 905.396 447.745 905.985 448.82C906.574 449.877 906.869 451.099 906.869 452.486ZM903.775 451.55C903.758 450.458 903.368 449.583 902.605 448.924C901.842 448.265 900.898 447.936 899.771 447.936C898.748 447.936 897.873 448.265 897.145 448.924C896.417 449.565 895.984 450.441 895.845 451.55H903.775ZM912.75 440.76V460H909.786V440.76H912.75ZM929.771 452.486C929.771 453.023 929.737 453.509 929.667 453.942H918.721C918.808 455.086 919.233 456.005 919.995 456.698C920.758 457.391 921.694 457.738 922.803 457.738C924.398 457.738 925.525 457.071 926.183 455.736H929.381C928.948 457.053 928.159 458.137 927.015 458.986C925.889 459.818 924.485 460.234 922.803 460.234C921.434 460.234 920.203 459.931 919.111 459.324C918.037 458.7 917.187 457.833 916.563 456.724C915.957 455.597 915.653 454.297 915.653 452.824C915.653 451.351 915.948 450.059 916.537 448.95C917.144 447.823 917.985 446.957 919.059 446.35C920.151 445.743 921.399 445.44 922.803 445.44C924.155 445.44 925.36 445.735 926.417 446.324C927.475 446.913 928.298 447.745 928.887 448.82C929.477 449.877 929.771 451.099 929.771 452.486ZM926.677 451.55C926.66 450.458 926.27 449.583 925.507 448.924C924.745 448.265 923.8 447.936 922.673 447.936C921.651 447.936 920.775 448.265 920.047 448.924C919.319 449.565 918.886 450.441 918.747 451.55H926.677ZM935.652 447.754C936.086 447.026 936.658 446.463 937.368 446.064C938.096 445.648 938.954 445.44 939.942 445.44V448.508H939.188C938.027 448.508 937.143 448.803 936.536 449.392C935.947 449.981 935.652 451.004 935.652 452.46V460H932.688V445.674H935.652V447.754ZM947.867 460.234C946.74 460.234 945.726 460.035 944.825 459.636C943.941 459.22 943.239 458.665 942.719 457.972C942.199 457.261 941.921 456.473 941.887 455.606H944.955C945.007 456.213 945.293 456.724 945.813 457.14C946.35 457.539 947.017 457.738 947.815 457.738C948.647 457.738 949.288 457.582 949.739 457.27C950.207 456.941 950.441 456.525 950.441 456.022C950.441 455.485 950.181 455.086 949.661 454.826C949.158 454.566 948.352 454.28 947.243 453.968C946.168 453.673 945.293 453.387 944.617 453.11C943.941 452.833 943.351 452.408 942.849 451.836C942.363 451.264 942.121 450.51 942.121 449.574C942.121 448.811 942.346 448.118 942.797 447.494C943.247 446.853 943.889 446.35 944.721 445.986C945.57 445.622 946.541 445.44 947.633 445.44C949.262 445.44 950.571 445.856 951.559 446.688C952.564 447.503 953.101 448.621 953.171 450.042H950.207C950.155 449.401 949.895 448.889 949.427 448.508C948.959 448.127 948.326 447.936 947.529 447.936C946.749 447.936 946.151 448.083 945.735 448.378C945.319 448.673 945.111 449.063 945.111 449.548C945.111 449.929 945.249 450.25 945.527 450.51C945.804 450.77 946.142 450.978 946.541 451.134C946.939 451.273 947.529 451.455 948.309 451.68C949.349 451.957 950.198 452.243 950.857 452.538C951.533 452.815 952.113 453.231 952.599 453.786C953.084 454.341 953.335 455.077 953.353 455.996C953.353 456.811 953.127 457.539 952.677 458.18C952.226 458.821 951.585 459.324 950.753 459.688C949.938 460.052 948.976 460.234 947.867 460.234ZM969.315 448.092H966.663V460H963.673V448.092H961.983V445.674H963.673V444.66C963.673 443.013 964.107 441.817 964.973 441.072C965.857 440.309 967.235 439.928 969.107 439.928V442.398C968.206 442.398 967.573 442.571 967.209 442.918C966.845 443.247 966.663 443.828 966.663 444.66V445.674H969.315V448.092ZM973.45 443.776C972.913 443.776 972.462 443.594 972.098 443.23C971.734 442.866 971.552 442.415 971.552 441.878C971.552 441.341 971.734 440.89 972.098 440.526C972.462 440.162 972.913 439.98 973.45 439.98C973.97 439.98 974.412 440.162 974.776 440.526C975.14 440.89 975.322 441.341 975.322 441.878C975.322 442.415 975.14 442.866 974.776 443.23C974.412 443.594 973.97 443.776 973.45 443.776ZM974.906 445.674V460H971.942V445.674H974.906ZM986.026 445.44C987.152 445.44 988.158 445.674 989.042 446.142C989.943 446.61 990.645 447.303 991.148 448.222C991.65 449.141 991.902 450.25 991.902 451.55V460H988.964V451.992C988.964 450.709 988.643 449.73 988.002 449.054C987.36 448.361 986.485 448.014 985.376 448.014C984.266 448.014 983.382 448.361 982.724 449.054C982.082 449.73 981.762 450.709 981.762 451.992V460H978.798V445.674H981.762V447.312C982.247 446.723 982.862 446.263 983.608 445.934C984.37 445.605 985.176 445.44 986.026 445.44ZM994.694 452.772C994.694 451.333 994.989 450.059 995.578 448.95C996.185 447.841 997 446.983 998.022 446.376C999.062 445.752 1000.22 445.44 1001.48 445.44C1002.42 445.44 1003.34 445.648 1004.24 446.064C1005.16 446.463 1005.88 447 1006.42 447.676V440.76H1009.41V460H1006.42V457.842C1005.94 458.535 1005.26 459.107 1004.39 459.558C1003.54 460.009 1002.56 460.234 1001.45 460.234C1000.21 460.234 999.062 459.922 998.022 459.298C997 458.657 996.185 457.773 995.578 456.646C994.989 455.502 994.694 454.211 994.694 452.772ZM1006.42 452.824C1006.42 451.836 1006.21 450.978 1005.8 450.25C1005.4 449.522 1004.87 448.967 1004.21 448.586C1003.55 448.205 1002.84 448.014 1002.08 448.014C1001.32 448.014 1000.61 448.205 999.946 448.586C999.288 448.95 998.75 449.496 998.334 450.224C997.936 450.935 997.736 451.784 997.736 452.772C997.736 453.76 997.936 454.627 998.334 455.372C998.75 456.117 999.288 456.689 999.946 457.088C1000.62 457.469 1001.33 457.66 1002.08 457.66C1002.84 457.66 1003.55 457.469 1004.21 457.088C1004.87 456.707 1005.4 456.152 1005.8 455.424C1006.21 454.679 1006.42 453.812 1006.42 452.824ZM1023.52 448.092V456.022C1023.52 456.559 1023.64 456.949 1023.88 457.192C1024.14 457.417 1024.57 457.53 1025.18 457.53H1027V460H1024.66C1023.32 460 1022.3 459.688 1021.59 459.064C1020.88 458.44 1020.53 457.426 1020.53 456.022V448.092H1018.84V445.674H1020.53V442.112H1023.52V445.674H1027V448.092H1023.52ZM1037.14 445.44C1038.23 445.44 1039.2 445.674 1040.05 446.142C1040.92 446.61 1041.6 447.303 1042.08 448.222C1042.58 449.141 1042.84 450.25 1042.84 451.55V460H1039.9V451.992C1039.9 450.709 1039.58 449.73 1038.94 449.054C1038.29 448.361 1037.42 448.014 1036.31 448.014C1035.2 448.014 1034.32 448.361 1033.66 449.054C1033.02 449.73 1032.7 450.709 1032.7 451.992V460H1029.73V440.76H1032.7V447.338C1033.2 446.731 1033.83 446.263 1034.59 445.934C1035.37 445.605 1036.22 445.44 1037.14 445.44ZM1059.75 452.486C1059.75 453.023 1059.71 453.509 1059.64 453.942H1048.7C1048.78 455.086 1049.21 456.005 1049.97 456.698C1050.73 457.391 1051.67 457.738 1052.78 457.738C1054.37 457.738 1055.5 457.071 1056.16 455.736H1059.36C1058.92 457.053 1058.13 458.137 1056.99 458.986C1055.86 459.818 1054.46 460.234 1052.78 460.234C1051.41 460.234 1050.18 459.931 1049.09 459.324C1048.01 458.7 1047.16 457.833 1046.54 456.724C1045.93 455.597 1045.63 454.297 1045.63 452.824C1045.63 451.351 1045.92 450.059 1046.51 448.95C1047.12 447.823 1047.96 446.957 1049.03 446.35C1050.13 445.743 1051.37 445.44 1052.78 445.44C1054.13 445.44 1055.33 445.735 1056.39 446.324C1057.45 446.913 1058.27 447.745 1058.86 448.82C1059.45 449.877 1059.75 451.099 1059.75 452.486ZM1056.65 451.55C1056.63 450.458 1056.24 449.583 1055.48 448.924C1054.72 448.265 1053.77 447.936 1052.65 447.936C1051.63 447.936 1050.75 448.265 1050.02 448.924C1049.29 449.565 1048.86 450.441 1048.72 451.55H1056.65ZM1072.38 447.806C1072.88 447.113 1073.57 446.549 1074.43 446.116C1075.32 445.665 1076.3 445.44 1077.37 445.44C1078.64 445.44 1079.78 445.743 1080.8 446.35C1081.83 446.957 1082.63 447.823 1083.22 448.95C1083.81 450.059 1084.11 451.333 1084.11 452.772C1084.11 454.211 1083.81 455.502 1083.22 456.646C1082.63 457.773 1081.82 458.657 1080.78 459.298C1079.76 459.922 1078.62 460.234 1077.37 460.234C1076.26 460.234 1075.28 460.017 1074.41 459.584C1073.56 459.151 1072.88 458.596 1072.38 457.92V460H1069.42V440.76H1072.38V447.806ZM1081.09 452.772C1081.09 451.784 1080.88 450.935 1080.47 450.224C1080.07 449.496 1079.53 448.95 1078.85 448.586C1078.2 448.205 1077.49 448.014 1076.72 448.014C1075.98 448.014 1075.27 448.205 1074.59 448.586C1073.93 448.967 1073.39 449.522 1072.98 450.25C1072.58 450.978 1072.38 451.836 1072.38 452.824C1072.38 453.812 1072.58 454.679 1072.98 455.424C1073.39 456.152 1073.93 456.707 1074.59 457.088C1075.27 457.469 1075.98 457.66 1076.72 457.66C1077.49 457.66 1078.2 457.469 1078.85 457.088C1079.53 456.689 1080.07 456.117 1080.47 455.372C1080.88 454.627 1081.09 453.76 1081.09 452.772ZM1100.17 452.486C1100.17 453.023 1100.13 453.509 1100.06 453.942H1089.12C1089.2 455.086 1089.63 456.005 1090.39 456.698C1091.15 457.391 1092.09 457.738 1093.2 457.738C1094.79 457.738 1095.92 457.071 1096.58 455.736H1099.78C1099.34 457.053 1098.56 458.137 1097.41 458.986C1096.29 459.818 1094.88 460.234 1093.2 460.234C1091.83 460.234 1090.6 459.931 1089.51 459.324C1088.43 458.7 1087.58 457.833 1086.96 456.724C1086.35 455.597 1086.05 454.297 1086.05 452.824C1086.05 451.351 1086.34 450.059 1086.93 448.95C1087.54 447.823 1088.38 446.957 1089.46 446.35C1090.55 445.743 1091.8 445.44 1093.2 445.44C1094.55 445.44 1095.76 445.735 1096.81 446.324C1097.87 446.913 1098.69 447.745 1099.28 448.82C1099.87 449.877 1100.17 451.099 1100.17 452.486ZM1097.07 451.55C1097.06 450.458 1096.67 449.583 1095.9 448.924C1095.14 448.265 1094.2 447.936 1093.07 447.936C1092.05 447.936 1091.17 448.265 1090.44 448.924C1089.72 449.565 1089.28 450.441 1089.14 451.55H1097.07ZM1108.28 460.234C1107.16 460.234 1106.14 460.035 1105.24 459.636C1104.36 459.22 1103.66 458.665 1103.14 457.972C1102.62 457.261 1102.34 456.473 1102.3 455.606H1105.37C1105.42 456.213 1105.71 456.724 1106.23 457.14C1106.77 457.539 1107.44 457.738 1108.23 457.738C1109.06 457.738 1109.71 457.582 1110.16 457.27C1110.62 456.941 1110.86 456.525 1110.86 456.022C1110.86 455.485 1110.6 455.086 1110.08 454.826C1109.58 454.566 1108.77 454.28 1107.66 453.968C1106.59 453.673 1105.71 453.387 1105.03 453.11C1104.36 452.833 1103.77 452.408 1103.27 451.836C1102.78 451.264 1102.54 450.51 1102.54 449.574C1102.54 448.811 1102.76 448.118 1103.21 447.494C1103.67 446.853 1104.31 446.35 1105.14 445.986C1105.99 445.622 1106.96 445.44 1108.05 445.44C1109.68 445.44 1110.99 445.856 1111.98 446.688C1112.98 447.503 1113.52 448.621 1113.59 450.042H1110.62C1110.57 449.401 1110.31 448.889 1109.84 448.508C1109.38 448.127 1108.74 447.936 1107.95 447.936C1107.17 447.936 1106.57 448.083 1106.15 448.378C1105.74 448.673 1105.53 449.063 1105.53 449.548C1105.53 449.929 1105.67 450.25 1105.94 450.51C1106.22 450.77 1106.56 450.978 1106.96 451.134C1107.36 451.273 1107.95 451.455 1108.73 451.68C1109.77 451.957 1110.62 452.243 1111.27 452.538C1111.95 452.815 1112.53 453.231 1113.02 453.786C1113.5 454.341 1113.75 455.077 1113.77 455.996C1113.77 456.811 1113.55 457.539 1113.09 458.18C1112.64 458.821 1112 459.324 1111.17 459.688C1110.36 460.052 1109.39 460.234 1108.28 460.234ZM1120.43 448.092V456.022C1120.43 456.559 1120.55 456.949 1120.8 457.192C1121.06 457.417 1121.49 457.53 1122.1 457.53H1123.92V460H1121.58C1120.24 460 1119.22 459.688 1118.51 459.064C1117.8 458.44 1117.44 457.426 1117.44 456.022V448.092H1115.75V445.674H1117.44V442.112H1120.43V445.674H1123.92V448.092H1120.43ZM1132.41 452.824C1132.41 451.351 1132.71 450.059 1133.3 448.95C1133.9 447.823 1134.74 446.957 1135.79 446.35C1136.85 445.743 1138.06 445.44 1139.43 445.44C1141.17 445.44 1142.6 445.856 1143.72 446.688C1144.87 447.503 1145.64 448.673 1146.04 450.198H1142.84C1142.58 449.487 1142.16 448.933 1141.59 448.534C1141.02 448.135 1140.3 447.936 1139.43 447.936C1138.22 447.936 1137.25 448.369 1136.52 449.236C1135.81 450.085 1135.46 451.281 1135.46 452.824C1135.46 454.367 1135.81 455.571 1136.52 456.438C1137.25 457.305 1138.22 457.738 1139.43 457.738C1141.15 457.738 1142.28 456.984 1142.84 455.476H1146.04C1145.62 456.932 1144.84 458.093 1143.7 458.96C1142.55 459.809 1141.13 460.234 1139.43 460.234C1138.06 460.234 1136.85 459.931 1135.79 459.324C1134.74 458.7 1133.9 457.833 1133.3 456.724C1132.71 455.597 1132.41 454.297 1132.41 452.824ZM1161.97 445.674V460H1159V458.31C1158.53 458.899 1157.92 459.367 1157.16 459.714C1156.41 460.043 1155.61 460.208 1154.76 460.208C1153.64 460.208 1152.62 459.974 1151.72 459.506C1150.84 459.038 1150.14 458.345 1149.62 457.426C1149.11 456.507 1148.86 455.398 1148.86 454.098V445.674H1151.8V453.656C1151.8 454.939 1152.12 455.927 1152.76 456.62C1153.4 457.296 1154.28 457.634 1155.39 457.634C1156.5 457.634 1157.37 457.296 1158.01 456.62C1158.67 455.927 1159 454.939 1159 453.656V445.674H1161.97ZM1168.84 447.754C1169.27 447.026 1169.85 446.463 1170.56 446.064C1171.28 445.648 1172.14 445.44 1173.13 445.44V448.508H1172.38C1171.21 448.508 1170.33 448.803 1169.72 449.392C1169.13 449.981 1168.84 451.004 1168.84 452.46V460H1165.88V445.674H1168.84V447.754ZM1178.82 447.754C1179.25 447.026 1179.82 446.463 1180.53 446.064C1181.26 445.648 1182.12 445.44 1183.11 445.44V448.508H1182.35C1181.19 448.508 1180.31 448.803 1179.7 449.392C1179.11 449.981 1178.82 451.004 1178.82 452.46V460H1175.85V445.674H1178.82V447.754ZM1198.96 452.486C1198.96 453.023 1198.93 453.509 1198.86 453.942H1187.91C1188 455.086 1188.42 456.005 1189.19 456.698C1189.95 457.391 1190.89 457.738 1191.99 457.738C1193.59 457.738 1194.72 457.071 1195.37 455.736H1198.57C1198.14 457.053 1197.35 458.137 1196.21 458.986C1195.08 459.818 1193.68 460.234 1191.99 460.234C1190.63 460.234 1189.39 459.931 1188.3 459.324C1187.23 458.7 1186.38 457.833 1185.75 456.724C1185.15 455.597 1184.84 454.297 1184.84 452.824C1184.84 451.351 1185.14 450.059 1185.73 448.95C1186.34 447.823 1187.18 446.957 1188.25 446.35C1189.34 445.743 1190.59 445.44 1191.99 445.44C1193.35 445.44 1194.55 445.735 1195.61 446.324C1196.67 446.913 1197.49 447.745 1198.08 448.82C1198.67 449.877 1198.96 451.099 1198.96 452.486ZM1195.87 451.55C1195.85 450.458 1195.46 449.583 1194.7 448.924C1193.94 448.265 1192.99 447.936 1191.86 447.936C1190.84 447.936 1189.97 448.265 1189.24 448.924C1188.51 449.565 1188.08 450.441 1187.94 451.55H1195.87ZM1209.11 445.44C1210.23 445.44 1211.24 445.674 1212.12 446.142C1213.03 446.61 1213.73 447.303 1214.23 448.222C1214.73 449.141 1214.98 450.25 1214.98 451.55V460H1212.05V451.992C1212.05 450.709 1211.73 449.73 1211.08 449.054C1210.44 448.361 1209.57 448.014 1208.46 448.014C1207.35 448.014 1206.46 448.361 1205.81 449.054C1205.16 449.73 1204.84 450.709 1204.84 451.992V460H1201.88V445.674H1204.84V447.312C1205.33 446.723 1205.94 446.263 1206.69 445.934C1207.45 445.605 1208.26 445.44 1209.11 445.44ZM1217.78 452.824C1217.78 451.351 1218.07 450.059 1218.66 448.95C1219.27 447.823 1220.1 446.957 1221.16 446.35C1222.21 445.743 1223.43 445.44 1224.8 445.44C1226.53 445.44 1227.96 445.856 1229.09 446.688C1230.23 447.503 1231 448.673 1231.4 450.198H1228.2C1227.94 449.487 1227.53 448.933 1226.95 448.534C1226.38 448.135 1225.66 447.936 1224.8 447.936C1223.58 447.936 1222.61 448.369 1221.88 449.236C1221.17 450.085 1220.82 451.281 1220.82 452.824C1220.82 454.367 1221.17 455.571 1221.88 456.438C1222.61 457.305 1223.58 457.738 1224.8 457.738C1226.51 457.738 1227.65 456.984 1228.2 455.476H1231.4C1230.98 456.932 1230.2 458.093 1229.06 458.96C1227.92 459.809 1226.5 460.234 1224.8 460.234C1223.43 460.234 1222.21 459.931 1221.16 459.324C1220.1 458.7 1219.27 457.833 1218.66 456.724C1218.07 455.597 1217.78 454.297 1217.78 452.824ZM1247.25 445.674L1238.46 466.734H1235.39L1238.31 459.766L1232.66 445.674H1235.97L1240 456.594L1244.18 445.674H1247.25ZM1269.37 452.486C1269.37 453.023 1269.34 453.509 1269.27 453.942H1258.32C1258.41 455.086 1258.83 456.005 1259.6 456.698C1260.36 457.391 1261.29 457.738 1262.4 457.738C1264 457.738 1265.12 457.071 1265.78 455.736H1268.98C1268.55 457.053 1267.76 458.137 1266.62 458.986C1265.49 459.818 1264.08 460.234 1262.4 460.234C1261.03 460.234 1259.8 459.931 1258.71 459.324C1257.64 458.7 1256.79 457.833 1256.16 456.724C1255.56 455.597 1255.25 454.297 1255.25 452.824C1255.25 451.351 1255.55 450.059 1256.14 448.95C1256.74 447.823 1257.58 446.957 1258.66 446.35C1259.75 445.743 1261 445.44 1262.4 445.44C1263.76 445.44 1264.96 445.735 1266.02 446.324C1267.07 446.913 1267.9 447.745 1268.49 448.82C1269.08 449.877 1269.37 451.099 1269.37 452.486ZM1266.28 451.55C1266.26 450.458 1265.87 449.583 1265.11 448.924C1264.34 448.265 1263.4 447.936 1262.27 447.936C1261.25 447.936 1260.38 448.265 1259.65 448.924C1258.92 449.565 1258.49 450.441 1258.35 451.55H1266.28ZM1278.42 452.746L1283.05 460H1279.7L1276.6 455.138L1273.69 460H1270.6L1275.23 452.954L1270.6 445.674H1273.95L1277.05 450.536L1279.96 445.674H1283.05L1278.42 452.746ZM1284.27 452.824C1284.27 451.351 1284.57 450.059 1285.16 448.95C1285.77 447.823 1286.6 446.957 1287.65 446.35C1288.71 445.743 1289.93 445.44 1291.29 445.44C1293.03 445.44 1294.46 445.856 1295.58 446.688C1296.73 447.503 1297.5 448.673 1297.9 450.198H1294.7C1294.44 449.487 1294.02 448.933 1293.45 448.534C1292.88 448.135 1292.16 447.936 1291.29 447.936C1290.08 447.936 1289.11 448.369 1288.38 449.236C1287.67 450.085 1287.32 451.281 1287.32 452.824C1287.32 454.367 1287.67 455.571 1288.38 456.438C1289.11 457.305 1290.08 457.738 1291.29 457.738C1293.01 457.738 1294.15 456.984 1294.7 455.476H1297.9C1297.48 456.932 1296.7 458.093 1295.56 458.96C1294.41 459.809 1292.99 460.234 1291.29 460.234C1289.93 460.234 1288.71 459.931 1287.65 459.324C1286.6 458.7 1285.77 457.833 1285.16 456.724C1284.57 455.597 1284.27 454.297 1284.27 452.824ZM1308.26 445.44C1309.35 445.44 1310.33 445.674 1311.17 446.142C1312.04 446.61 1312.72 447.303 1313.2 448.222C1313.71 449.141 1313.96 450.25 1313.96 451.55V460H1311.02V451.992C1311.02 450.709 1310.7 449.73 1310.06 449.054C1309.42 448.361 1308.54 448.014 1307.43 448.014C1306.32 448.014 1305.44 448.361 1304.78 449.054C1304.14 449.73 1303.82 450.709 1303.82 451.992V460H1300.85V440.76H1303.82V447.338C1304.32 446.731 1304.95 446.263 1305.71 445.934C1306.49 445.605 1307.34 445.44 1308.26 445.44ZM1316.75 452.772C1316.75 451.333 1317.04 450.059 1317.63 448.95C1318.24 447.841 1319.05 446.983 1320.08 446.376C1321.12 445.752 1322.26 445.44 1323.51 445.44C1324.64 445.44 1325.62 445.665 1326.45 446.116C1327.3 446.549 1327.97 447.095 1328.48 447.754V445.674H1331.47V460H1328.48V457.868C1327.97 458.544 1327.29 459.107 1326.42 459.558C1325.55 460.009 1324.57 460.234 1323.46 460.234C1322.23 460.234 1321.1 459.922 1320.08 459.298C1319.05 458.657 1318.24 457.773 1317.63 456.646C1317.04 455.502 1316.75 454.211 1316.75 452.772ZM1328.48 452.824C1328.48 451.836 1328.27 450.978 1327.85 450.25C1327.45 449.522 1326.92 448.967 1326.27 448.586C1325.61 448.205 1324.9 448.014 1324.13 448.014C1323.37 448.014 1322.66 448.205 1322 448.586C1321.34 448.95 1320.81 449.496 1320.39 450.224C1319.99 450.935 1319.79 451.784 1319.79 452.772C1319.79 453.76 1319.99 454.627 1320.39 455.372C1320.81 456.117 1321.34 456.689 1322 457.088C1322.68 457.469 1323.39 457.66 1324.13 457.66C1324.9 457.66 1325.61 457.469 1326.27 457.088C1326.92 456.707 1327.45 456.152 1327.85 455.424C1328.27 454.679 1328.48 453.812 1328.48 452.824ZM1342.59 445.44C1343.71 445.44 1344.72 445.674 1345.6 446.142C1346.5 446.61 1347.21 447.303 1347.71 448.222C1348.21 449.141 1348.46 450.25 1348.46 451.55V460H1345.52V451.992C1345.52 450.709 1345.2 449.73 1344.56 449.054C1343.92 448.361 1343.05 448.014 1341.94 448.014C1340.83 448.014 1339.94 448.361 1339.28 449.054C1338.64 449.73 1338.32 450.709 1338.32 451.992V460H1335.36V445.674H1338.32V447.312C1338.81 446.723 1339.42 446.263 1340.17 445.934C1340.93 445.605 1341.74 445.44 1342.59 445.44ZM1358.01 445.44C1359.12 445.44 1360.1 445.665 1360.95 446.116C1361.82 446.549 1362.5 447.095 1362.98 447.754V445.674H1365.97V460.234C1365.97 461.551 1365.69 462.721 1365.14 463.744C1364.58 464.784 1363.78 465.599 1362.72 466.188C1361.68 466.777 1360.43 467.072 1358.98 467.072C1357.04 467.072 1355.42 466.613 1354.14 465.694C1352.86 464.793 1352.13 463.562 1351.96 462.002H1354.89C1355.12 462.747 1355.6 463.345 1356.32 463.796C1357.07 464.264 1357.95 464.498 1358.98 464.498C1360.17 464.498 1361.13 464.134 1361.86 463.406C1362.61 462.678 1362.98 461.621 1362.98 460.234V457.842C1362.48 458.518 1361.79 459.09 1360.93 459.558C1360.08 460.009 1359.11 460.234 1358.01 460.234C1356.77 460.234 1355.62 459.922 1354.58 459.298C1353.56 458.657 1352.75 457.773 1352.14 456.646C1351.55 455.502 1351.25 454.211 1351.25 452.772C1351.25 451.333 1351.55 450.059 1352.14 448.95C1352.75 447.841 1353.56 446.983 1354.58 446.376C1355.62 445.752 1356.77 445.44 1358.01 445.44ZM1362.98 452.824C1362.98 451.836 1362.77 450.978 1362.36 450.25C1361.96 449.522 1361.43 448.967 1360.77 448.586C1360.11 448.205 1359.4 448.014 1358.64 448.014C1357.88 448.014 1357.17 448.205 1356.51 448.586C1355.85 448.95 1355.31 449.496 1354.89 450.224C1354.5 450.935 1354.3 451.784 1354.3 452.772C1354.3 453.76 1354.5 454.627 1354.89 455.372C1355.31 456.117 1355.85 456.689 1356.51 457.088C1357.18 457.469 1357.89 457.66 1358.64 457.66C1359.4 457.66 1360.11 457.469 1360.77 457.088C1361.43 456.707 1361.96 456.152 1362.36 455.424C1362.77 454.679 1362.98 453.812 1362.98 452.824ZM1382.99 452.486C1382.99 453.023 1382.96 453.509 1382.89 453.942H1371.94C1372.03 455.086 1372.46 456.005 1373.22 456.698C1373.98 457.391 1374.92 457.738 1376.03 457.738C1377.62 457.738 1378.75 457.071 1379.41 455.736H1382.6C1382.17 457.053 1381.38 458.137 1380.24 458.986C1379.11 459.818 1377.71 460.234 1376.03 460.234C1374.66 460.234 1373.43 459.931 1372.33 459.324C1371.26 458.7 1370.41 457.833 1369.79 456.724C1369.18 455.597 1368.88 454.297 1368.88 452.824C1368.88 451.351 1369.17 450.059 1369.76 448.95C1370.37 447.823 1371.21 446.957 1372.28 446.35C1373.37 445.743 1374.62 445.44 1376.03 445.44C1377.38 445.44 1378.58 445.735 1379.64 446.324C1380.7 446.913 1381.52 447.745 1382.11 448.82C1382.7 449.877 1382.99 451.099 1382.99 452.486ZM1379.9 451.55C1379.88 450.458 1379.49 449.583 1378.73 448.924C1377.97 448.265 1377.02 447.936 1375.9 447.936C1374.87 447.936 1374 448.265 1373.27 448.924C1372.54 449.565 1372.11 450.441 1371.97 451.55H1379.9ZM1399.89 445.44C1401.02 445.44 1402.02 445.674 1402.91 446.142C1403.81 446.61 1404.51 447.303 1405.01 448.222C1405.52 449.141 1405.77 450.25 1405.77 451.55V460H1402.83V451.992C1402.83 450.709 1402.51 449.73 1401.87 449.054C1401.23 448.361 1400.35 448.014 1399.24 448.014C1398.13 448.014 1397.25 448.361 1396.59 449.054C1395.95 449.73 1395.63 450.709 1395.63 451.992V460H1392.66V445.674H1395.63V447.312C1396.11 446.723 1396.73 446.263 1397.47 445.934C1398.24 445.605 1399.04 445.44 1399.89 445.44ZM1422.68 452.486C1422.68 453.023 1422.64 453.509 1422.58 453.942H1411.63C1411.72 455.086 1412.14 456.005 1412.9 456.698C1413.67 457.391 1414.6 457.738 1415.71 457.738C1417.31 457.738 1418.43 457.071 1419.09 455.736H1422.29C1421.86 457.053 1421.07 458.137 1419.92 458.986C1418.8 459.818 1417.39 460.234 1415.71 460.234C1414.34 460.234 1413.11 459.931 1412.02 459.324C1410.94 458.7 1410.1 457.833 1409.47 456.724C1408.86 455.597 1408.56 454.297 1408.56 452.824C1408.56 451.351 1408.86 450.059 1409.45 448.95C1410.05 447.823 1410.89 446.957 1411.97 446.35C1413.06 445.743 1414.31 445.44 1415.71 445.44C1417.06 445.44 1418.27 445.735 1419.33 446.324C1420.38 446.913 1421.21 447.745 1421.8 448.82C1422.38 449.877 1422.68 451.099 1422.68 452.486ZM1419.59 451.55C1419.57 450.458 1419.18 449.583 1418.42 448.924C1417.65 448.265 1416.71 447.936 1415.58 447.936C1414.56 447.936 1413.68 448.265 1412.96 448.924C1412.23 449.565 1411.79 450.441 1411.66 451.55H1419.59ZM1424.61 452.772C1424.61 451.333 1424.9 450.059 1425.49 448.95C1426.1 447.841 1426.91 446.983 1427.94 446.376C1428.98 445.752 1430.12 445.44 1431.37 445.44C1432.5 445.44 1433.47 445.665 1434.31 446.116C1435.16 446.549 1435.83 447.095 1436.33 447.754V445.674H1439.32V460H1436.33V457.868C1435.83 458.544 1435.15 459.107 1434.28 459.558C1433.41 460.009 1432.43 460.234 1431.32 460.234C1430.09 460.234 1428.96 459.922 1427.94 459.298C1426.91 458.657 1426.1 457.773 1425.49 456.646C1424.9 455.502 1424.61 454.211 1424.61 452.772ZM1436.33 452.824C1436.33 451.836 1436.13 450.978 1435.71 450.25C1435.31 449.522 1434.78 448.967 1434.12 448.586C1433.47 448.205 1432.76 448.014 1431.99 448.014C1431.23 448.014 1430.52 448.205 1429.86 448.586C1429.2 448.95 1428.66 449.496 1428.25 450.224C1427.85 450.935 1427.65 451.784 1427.65 452.772C1427.65 453.76 1427.85 454.627 1428.25 455.372C1428.66 456.117 1429.2 456.689 1429.86 457.088C1430.54 457.469 1431.25 457.66 1431.99 457.66C1432.76 457.66 1433.47 457.469 1434.12 457.088C1434.78 456.707 1435.31 456.152 1435.71 455.424C1436.13 454.679 1436.33 453.812 1436.33 452.824ZM1446.18 447.754C1446.61 447.026 1447.19 446.463 1447.9 446.064C1448.63 445.648 1449.48 445.44 1450.47 445.44V448.508H1449.72C1448.56 448.508 1447.67 448.803 1447.07 449.392C1446.48 449.981 1446.18 451.004 1446.18 452.46V460H1443.22V445.674H1446.18V447.754ZM1463.41 448.092V456.022C1463.41 456.559 1463.53 456.949 1463.77 457.192C1464.03 457.417 1464.47 457.53 1465.07 457.53H1466.89V460H1464.55C1463.22 460 1462.19 459.688 1461.48 459.064C1460.77 458.44 1460.42 457.426 1460.42 456.022V448.092H1458.73V445.674H1460.42V442.112H1463.41V445.674H1466.89V448.092H1463.41ZM1477.03 445.44C1478.13 445.44 1479.1 445.674 1479.95 446.142C1480.81 446.61 1481.49 447.303 1481.97 448.222C1482.48 449.141 1482.73 450.25 1482.73 451.55V460H1479.79V451.992C1479.79 450.709 1479.47 449.73 1478.83 449.054C1478.19 448.361 1477.31 448.014 1476.2 448.014C1475.09 448.014 1474.21 448.361 1473.55 449.054C1472.91 449.73 1472.59 450.709 1472.59 451.992V460H1469.62V440.76H1472.59V447.338C1473.09 446.731 1473.72 446.263 1474.49 445.934C1475.27 445.605 1476.12 445.44 1477.03 445.44ZM1499.64 452.486C1499.64 453.023 1499.6 453.509 1499.53 453.942H1488.59C1488.68 455.086 1489.1 456.005 1489.86 456.698C1490.63 457.391 1491.56 457.738 1492.67 457.738C1494.27 457.738 1495.39 457.071 1496.05 455.736H1499.25C1498.82 457.053 1498.03 458.137 1496.88 458.986C1495.76 459.818 1494.35 460.234 1492.67 460.234C1491.3 460.234 1490.07 459.931 1488.98 459.324C1487.9 458.7 1487.05 457.833 1486.43 456.724C1485.82 455.597 1485.52 454.297 1485.52 452.824C1485.52 451.351 1485.82 450.059 1486.4 448.95C1487.01 447.823 1487.85 446.957 1488.93 446.35C1490.02 445.743 1491.27 445.44 1492.67 445.44C1494.02 445.44 1495.23 445.735 1496.28 446.324C1497.34 446.913 1498.17 447.745 1498.75 448.82C1499.34 449.877 1499.64 451.099 1499.64 452.486ZM1496.54 451.55C1496.53 450.458 1496.14 449.583 1495.37 448.924C1494.61 448.265 1493.67 447.936 1492.54 447.936C1491.52 447.936 1490.64 448.265 1489.91 448.924C1489.19 449.565 1488.75 450.441 1488.61 451.55H1496.54ZM1519.9 445.44C1521.02 445.44 1522.03 445.674 1522.91 446.142C1523.81 446.61 1524.52 447.303 1525.02 448.222C1525.54 449.141 1525.8 450.25 1525.8 451.55V460H1522.86V451.992C1522.86 450.709 1522.54 449.73 1521.9 449.054C1521.26 448.361 1520.38 448.014 1519.27 448.014C1518.16 448.014 1517.28 448.361 1516.62 449.054C1515.98 449.73 1515.66 450.709 1515.66 451.992V460H1512.72V451.992C1512.72 450.709 1512.4 449.73 1511.76 449.054C1511.12 448.361 1510.24 448.014 1509.13 448.014C1508.02 448.014 1507.14 448.361 1506.48 449.054C1505.84 449.73 1505.52 450.709 1505.52 451.992V460H1502.56V445.674H1505.52V447.312C1506 446.723 1506.62 446.263 1507.37 445.934C1508.11 445.605 1508.91 445.44 1509.76 445.44C1510.9 445.44 1511.92 445.683 1512.83 446.168C1513.73 446.653 1514.42 447.355 1514.91 448.274C1515.34 447.407 1516.01 446.723 1516.93 446.22C1517.85 445.7 1518.84 445.44 1519.9 445.44ZM1530.77 460.182C1530.23 460.182 1529.78 460 1529.42 459.636C1529.05 459.272 1528.87 458.821 1528.87 458.284C1528.87 457.747 1529.05 457.296 1529.42 456.932C1529.78 456.568 1530.23 456.386 1530.77 456.386C1531.29 456.386 1531.73 456.568 1532.09 456.932C1532.46 457.296 1532.64 457.747 1532.64 458.284C1532.64 458.821 1532.46 459.272 1532.09 459.636C1531.73 460 1531.29 460.182 1530.77 460.182ZM714.325 532.664V548.344C714.325 550.52 713.696 552.216 712.437 553.432C711.178 554.627 709.493 555.224 707.381 555.224C705.248 555.224 703.52 554.605 702.197 553.368C700.896 552.131 700.245 550.403 700.245 548.184H704.725C704.746 549.144 704.97 549.891 705.397 550.424C705.845 550.957 706.485 551.224 707.317 551.224C708.128 551.224 708.746 550.968 709.173 550.456C709.6 549.944 709.813 549.24 709.813 548.344V532.664H714.325ZM735.327 537.272V555H730.815V552.76C730.239 553.528 729.482 554.136 728.543 554.584C727.626 555.011 726.623 555.224 725.535 555.224C724.148 555.224 722.922 554.936 721.855 554.36C720.788 553.763 719.946 552.899 719.327 551.768C718.73 550.616 718.431 549.251 718.431 547.672V537.272H722.911V547.032C722.911 548.44 723.263 549.528 723.967 550.296C724.671 551.043 725.631 551.416 726.847 551.416C728.084 551.416 729.055 551.043 729.759 550.296C730.463 549.528 730.815 548.44 730.815 547.032V537.272H735.327ZM748.611 537.016C750.723 537.016 752.43 537.688 753.731 539.032C755.033 540.355 755.683 542.211 755.683 544.6V555H751.203V545.208C751.203 543.8 750.851 542.723 750.147 541.976C749.443 541.208 748.483 540.824 747.267 540.824C746.03 540.824 745.049 541.208 744.323 541.976C743.619 542.723 743.267 543.8 743.267 545.208V555H738.787V537.272H743.267V539.48C743.865 538.712 744.622 538.115 745.539 537.688C746.478 537.24 747.502 537.016 748.611 537.016ZM775.464 545.752C775.464 546.392 775.421 546.968 775.336 547.48H762.376C762.482 548.76 762.93 549.763 763.72 550.488C764.509 551.213 765.48 551.576 766.632 551.576C768.296 551.576 769.48 550.861 770.184 549.432H775.016C774.504 551.139 773.522 552.547 772.072 553.656C770.621 554.744 768.84 555.288 766.728 555.288C765.021 555.288 763.485 554.915 762.12 554.168C760.776 553.4 759.72 552.323 758.952 550.936C758.205 549.549 757.832 547.949 757.832 546.136C757.832 544.301 758.205 542.691 758.952 541.304C759.698 539.917 760.744 538.851 762.088 538.104C763.432 537.357 764.978 536.984 766.728 536.984C768.413 536.984 769.917 537.347 771.24 538.072C772.584 538.797 773.618 539.832 774.344 541.176C775.09 542.499 775.464 544.024 775.464 545.752ZM770.824 544.472C770.802 543.32 770.386 542.403 769.576 541.72C768.765 541.016 767.773 540.664 766.6 540.664C765.49 540.664 764.552 541.005 763.784 541.688C763.037 542.349 762.578 543.277 762.408 544.472H770.824ZM785.335 549.944C787.383 548.237 789.015 546.819 790.231 545.688C791.447 544.536 792.46 543.341 793.271 542.104C794.081 540.867 794.487 539.651 794.487 538.456C794.487 537.368 794.231 536.515 793.719 535.896C793.207 535.277 792.417 534.968 791.351 534.968C790.284 534.968 789.463 535.331 788.887 536.056C788.311 536.76 788.012 537.731 787.991 538.968H783.639C783.724 536.408 784.481 534.467 785.911 533.144C787.361 531.821 789.196 531.16 791.415 531.16C793.847 531.16 795.713 531.811 797.015 533.112C798.316 534.392 798.967 536.088 798.967 538.2C798.967 539.864 798.519 541.453 797.623 542.968C796.727 544.483 795.703 545.805 794.551 546.936C793.399 548.045 791.895 549.389 790.039 550.968H799.479V554.68H783.671V551.352L785.335 549.944ZM801.342 543.032C801.342 539.341 802.003 536.451 803.326 534.36C804.67 532.269 806.888 531.224 809.982 531.224C813.075 531.224 815.283 532.269 816.606 534.36C817.95 536.451 818.622 539.341 818.622 543.032C818.622 546.744 817.95 549.656 816.606 551.768C815.283 553.88 813.075 554.936 809.982 554.936C806.888 554.936 804.67 553.88 803.326 551.768C802.003 549.656 801.342 546.744 801.342 543.032ZM814.206 543.032C814.206 541.453 814.099 540.131 813.886 539.064C813.694 537.976 813.288 537.091 812.67 536.408C812.072 535.725 811.176 535.384 809.982 535.384C808.787 535.384 807.88 535.725 807.262 536.408C806.664 537.091 806.259 537.976 806.046 539.064C805.854 540.131 805.758 541.453 805.758 543.032C805.758 544.653 805.854 546.019 806.046 547.128C806.238 548.216 806.643 549.101 807.262 549.784C807.88 550.445 808.787 550.776 809.982 550.776C811.176 550.776 812.083 550.445 812.702 549.784C813.32 549.101 813.726 548.216 813.918 547.128C814.11 546.019 814.206 544.653 814.206 543.032ZM822.477 549.944C824.525 548.237 826.157 546.819 827.373 545.688C828.589 544.536 829.603 543.341 830.413 542.104C831.224 540.867 831.629 539.651 831.629 538.456C831.629 537.368 831.373 536.515 830.861 535.896C830.349 535.277 829.56 534.968 828.493 534.968C827.427 534.968 826.605 535.331 826.029 536.056C825.453 536.76 825.155 537.731 825.133 538.968H820.781C820.867 536.408 821.624 534.467 823.053 533.144C824.504 531.821 826.339 531.16 828.557 531.16C830.989 531.16 832.856 531.811 834.157 533.112C835.459 534.392 836.109 536.088 836.109 538.2C836.109 539.864 835.661 541.453 834.765 542.968C833.869 544.483 832.845 545.805 831.693 546.936C830.541 548.045 829.037 549.389 827.181 550.968H836.621V554.68H820.813V551.352L822.477 549.944ZM838.292 550.456V546.936L848.756 531.96H853.972V546.552H856.788V550.456H853.972V555H849.492V550.456H838.292ZM849.78 536.76L843.22 546.552H849.78V536.76ZM872.824 541.688V545.464H859.256V541.688H872.824ZM889.913 532.664V548.344C889.913 550.52 889.283 552.216 888.025 553.432C886.766 554.627 885.081 555.224 882.969 555.224C880.835 555.224 879.107 554.605 877.785 553.368C876.483 552.131 875.833 550.403 875.833 548.184H880.313C880.334 549.144 880.558 549.891 880.985 550.424C881.433 550.957 882.073 551.224 882.905 551.224C883.715 551.224 884.334 550.968 884.761 550.456C885.187 549.944 885.401 549.24 885.401 548.344V532.664H889.913ZM910.915 537.272V555H906.403V552.76C905.827 553.528 905.069 554.136 904.131 554.584C903.213 555.011 902.211 555.224 901.123 555.224C899.736 555.224 898.509 554.936 897.443 554.36C896.376 553.763 895.533 552.899 894.915 551.768C894.317 550.616 894.019 549.251 894.019 547.672V537.272H898.499V547.032C898.499 548.44 898.851 549.528 899.555 550.296C900.259 551.043 901.219 551.416 902.435 551.416C903.672 551.416 904.643 551.043 905.347 550.296C906.051 549.528 906.403 548.44 906.403 547.032V537.272H910.915ZM918.855 531.32V555H914.375V531.32H918.855ZM939.281 537.272L928.305 563.384H923.537L927.377 554.552L920.273 537.272H925.297L929.873 549.656L934.513 537.272H939.281ZM948.297 549.944C950.345 548.237 951.977 546.819 953.193 545.688C954.409 544.536 955.422 543.341 956.233 542.104C957.044 540.867 957.449 539.651 957.449 538.456C957.449 537.368 957.193 536.515 956.681 535.896C956.169 535.277 955.38 534.968 954.313 534.968C953.246 534.968 952.425 535.331 951.849 536.056C951.273 536.76 950.974 537.731 950.953 538.968H946.601C946.686 536.408 947.444 534.467 948.873 533.144C950.324 531.821 952.158 531.16 954.377 531.16C956.809 531.16 958.676 531.811 959.977 533.112C961.278 534.392 961.929 536.088 961.929 538.2C961.929 539.864 961.481 541.453 960.585 542.968C959.689 544.483 958.665 545.805 957.513 546.936C956.361 548.045 954.857 549.389 953.001 550.968H962.441V554.68H946.633V551.352L948.297 549.944ZM964.304 543.032C964.304 539.341 964.965 536.451 966.288 534.36C967.632 532.269 969.851 531.224 972.944 531.224C976.037 531.224 978.245 532.269 979.568 534.36C980.912 536.451 981.584 539.341 981.584 543.032C981.584 546.744 980.912 549.656 979.568 551.768C978.245 553.88 976.037 554.936 972.944 554.936C969.851 554.936 967.632 553.88 966.288 551.768C964.965 549.656 964.304 546.744 964.304 543.032ZM977.168 543.032C977.168 541.453 977.061 540.131 976.848 539.064C976.656 537.976 976.251 537.091 975.632 536.408C975.035 535.725 974.139 535.384 972.944 535.384C971.749 535.384 970.843 535.725 970.224 536.408C969.627 537.091 969.221 537.976 969.008 539.064C968.816 540.131 968.72 541.453 968.72 543.032C968.72 544.653 968.816 546.019 969.008 547.128C969.2 548.216 969.605 549.101 970.224 549.784C970.843 550.445 971.749 550.776 972.944 550.776C974.139 550.776 975.045 550.445 975.664 549.784C976.283 549.101 976.688 548.216 976.88 547.128C977.072 546.019 977.168 544.653 977.168 543.032ZM985.44 549.944C987.488 548.237 989.12 546.819 990.336 545.688C991.552 544.536 992.565 543.341 993.376 542.104C994.186 540.867 994.592 539.651 994.592 538.456C994.592 537.368 994.336 536.515 993.824 535.896C993.312 535.277 992.522 534.968 991.456 534.968C990.389 534.968 989.568 535.331 988.992 536.056C988.416 536.76 988.117 537.731 988.096 538.968H983.744C983.829 536.408 984.586 534.467 986.016 533.144C987.466 531.821 989.301 531.16 991.52 531.16C993.952 531.16 995.818 531.811 997.12 533.112C998.421 534.392 999.072 536.088 999.072 538.2C999.072 539.864 998.624 541.453 997.728 542.968C996.832 544.483 995.808 545.805 994.656 546.936C993.504 548.045 992 549.389 990.144 550.968H999.584V554.68H983.776V551.352L985.44 549.944ZM1001.25 550.456V546.936L1011.72 531.96H1016.93V546.552H1019.75V550.456H1016.93V555H1012.45V550.456H1001.25ZM1012.74 536.76L1006.18 546.552H1012.74V536.76Z" fill="white"/>
<rect x="172" y="240" width="1373" height="479" stroke="#42767E" stroke-width="2"/>
<rect x="164.75" y="222.75" width="18.1931" height="31.7258" fill="white" stroke="#42767E" stroke-width="1.5"/>
<rect x="1536.75" y="222.75" width="18.1931" height="31.7258" fill="white" stroke="#42767E" stroke-width="1.5"/>
<rect x="164.75" y="704.523" width="18.1931" height="31.7258" fill="white" stroke="#42767E" stroke-width="1.5"/>
<rect x="1536.75" y="703.75" width="18.1931" height="31.7258" fill="white" stroke="#42767E" stroke-width="1.5"/>
</svg>
