<svg width="1720" height="964" viewBox="0 0 1720 964" fill="none" xmlns="http://www.w3.org/2000/svg">
<rect width="1720" height="964" fill="#007BFF"/>
<path d="M697.684 332.864C697.684 334.656 697.252 336.336 696.388 337.904C695.556 339.472 694.228 340.736 692.404 341.696C690.612 342.656 688.34 343.136 685.588 343.136H679.972V356H673.252V322.496H685.588C688.18 322.496 690.388 322.944 692.212 323.84C694.036 324.736 695.396 325.968 696.292 327.536C697.22 329.104 697.684 330.88 697.684 332.864ZM685.3 337.712C687.156 337.712 688.532 337.296 689.428 336.464C690.324 335.6 690.772 334.4 690.772 332.864C690.772 329.6 688.948 327.968 685.3 327.968H679.972V337.712H685.3ZM707.736 333.536C708.6 332.128 709.72 331.024 711.096 330.224C712.504 329.424 714.104 329.024 715.896 329.024V336.08H714.12C712.008 336.08 710.408 336.576 709.32 337.568C708.264 338.56 707.736 340.288 707.736 342.752V356H701.016V329.408H707.736V333.536ZM730.79 356.432C728.23 356.432 725.926 355.872 723.878 354.752C721.83 353.6 720.214 351.984 719.03 349.904C717.878 347.824 717.302 345.424 717.302 342.704C717.302 339.984 717.894 337.584 719.078 335.504C720.294 333.424 721.942 331.824 724.022 330.704C726.102 329.552 728.422 328.976 730.982 328.976C733.542 328.976 735.862 329.552 737.942 330.704C740.022 331.824 741.654 333.424 742.838 335.504C744.054 337.584 744.662 339.984 744.662 342.704C744.662 345.424 744.038 347.824 742.79 349.904C741.574 351.984 739.91 353.6 737.798 354.752C735.718 355.872 733.382 356.432 730.79 356.432ZM730.79 350.576C732.006 350.576 733.142 350.288 734.198 349.712C735.286 349.104 736.15 348.208 736.79 347.024C737.43 345.84 737.75 344.4 737.75 342.704C737.75 340.176 737.078 338.24 735.734 336.896C734.422 335.52 732.806 334.832 730.886 334.832C728.966 334.832 727.35 335.52 726.038 336.896C724.758 338.24 724.118 340.176 724.118 342.704C724.118 345.232 724.742 347.184 725.99 348.56C727.27 349.904 728.87 350.576 730.79 350.576ZM751.559 326.24C750.343 326.24 749.335 325.872 748.535 325.136C747.767 324.368 747.383 323.424 747.383 322.304C747.383 321.184 747.767 320.256 748.535 319.52C749.335 318.752 750.343 318.368 751.559 318.368C752.743 318.368 753.719 318.752 754.487 319.52C755.255 320.256 755.639 321.184 755.639 322.304C755.639 323.424 755.255 324.368 754.487 325.136C753.719 325.872 752.743 326.24 751.559 326.24ZM754.871 360.368C754.871 363.312 754.135 365.424 752.663 366.704C751.223 368.016 749.143 368.672 746.423 368.672H743.447V362.96H745.367C746.391 362.96 747.111 362.752 747.527 362.336C747.943 361.952 748.151 361.312 748.151 360.416V329.408H754.871V360.368ZM784.791 342.128C784.791 343.088 784.727 343.952 784.599 344.72H765.159C765.319 346.64 765.991 348.144 767.175 349.232C768.359 350.32 769.815 350.864 771.543 350.864C774.039 350.864 775.815 349.792 776.871 347.648H784.119C783.351 350.208 781.879 352.32 779.703 353.984C777.527 355.616 774.855 356.432 771.687 356.432C769.127 356.432 766.823 355.872 764.775 354.752C762.759 353.6 761.175 351.984 760.023 349.904C758.903 347.824 758.343 345.424 758.343 342.704C758.343 339.952 758.903 337.536 760.023 335.456C761.143 333.376 762.711 331.776 764.727 330.656C766.743 329.536 769.063 328.976 771.687 328.976C774.215 328.976 776.471 329.52 778.455 330.608C780.471 331.696 782.023 333.248 783.111 335.264C784.231 337.248 784.791 339.536 784.791 342.128ZM777.831 340.208C777.799 338.48 777.175 337.104 775.959 336.08C774.743 335.024 773.255 334.496 771.495 334.496C769.831 334.496 768.423 335.008 767.271 336.032C766.151 337.024 765.463 338.416 765.207 340.208H777.831ZM786.528 342.704C786.528 339.952 787.088 337.552 788.208 335.504C789.328 333.424 790.88 331.824 792.864 330.704C794.848 329.552 797.12 328.976 799.68 328.976C802.976 328.976 805.696 329.808 807.84 331.472C810.016 333.104 811.472 335.408 812.208 338.384H804.96C804.576 337.232 803.92 336.336 802.992 335.696C802.096 335.024 800.976 334.688 799.632 334.688C797.712 334.688 796.192 335.392 795.072 336.8C793.952 338.176 793.392 340.144 793.392 342.704C793.392 345.232 793.952 347.2 795.072 348.608C796.192 349.984 797.712 350.672 799.632 350.672C802.352 350.672 804.128 349.456 804.96 347.024H812.208C811.472 349.904 810.016 352.192 807.84 353.888C805.664 355.584 802.944 356.432 799.68 356.432C797.12 356.432 794.848 355.872 792.864 354.752C790.88 353.6 789.328 352 788.208 349.952C787.088 347.872 786.528 345.456 786.528 342.704ZM823.515 334.928V347.792C823.515 348.688 823.723 349.344 824.139 349.76C824.587 350.144 825.323 350.336 826.347 350.336H829.467V356H825.243C819.579 356 816.747 353.248 816.747 347.744V334.928H813.579V329.408H816.747V322.832H823.515V329.408H829.467V334.928H823.515ZM854.666 356.432C852.106 356.432 849.802 355.872 847.754 354.752C845.706 353.6 844.09 351.984 842.906 349.904C841.754 347.824 841.178 345.424 841.178 342.704C841.178 339.984 841.77 337.584 842.954 335.504C844.17 333.424 845.818 331.824 847.898 330.704C849.978 329.552 852.298 328.976 854.858 328.976C857.418 328.976 859.738 329.552 861.818 330.704C863.898 331.824 865.53 333.424 866.714 335.504C867.93 337.584 868.538 339.984 868.538 342.704C868.538 345.424 867.914 347.824 866.666 349.904C865.45 351.984 863.786 353.6 861.674 354.752C859.594 355.872 857.258 356.432 854.666 356.432ZM854.666 350.576C855.882 350.576 857.018 350.288 858.074 349.712C859.162 349.104 860.026 348.208 860.666 347.024C861.306 345.84 861.626 344.4 861.626 342.704C861.626 340.176 860.954 338.24 859.61 336.896C858.298 335.52 856.682 334.832 854.762 334.832C852.842 334.832 851.226 335.52 849.914 336.896C848.634 338.24 847.994 340.176 847.994 342.704C847.994 345.232 848.618 347.184 849.866 348.56C851.146 349.904 852.746 350.576 854.666 350.576ZM883.115 349.808L889.835 329.408H896.987L887.147 356H878.987L869.195 329.408H876.395L883.115 349.808ZM924.042 342.128C924.042 343.088 923.978 343.952 923.85 344.72H904.409C904.569 346.64 905.241 348.144 906.425 349.232C907.609 350.32 909.065 350.864 910.793 350.864C913.289 350.864 915.065 349.792 916.121 347.648H923.37C922.601 350.208 921.129 352.32 918.953 353.984C916.777 355.616 914.105 356.432 910.937 356.432C908.377 356.432 906.073 355.872 904.025 354.752C902.009 353.6 900.425 351.984 899.273 349.904C898.153 347.824 897.593 345.424 897.593 342.704C897.593 339.952 898.153 337.536 899.273 335.456C900.393 333.376 901.961 331.776 903.977 330.656C905.993 329.536 908.313 328.976 910.937 328.976C913.465 328.976 915.721 329.52 917.705 330.608C919.721 331.696 921.273 333.248 922.361 335.264C923.482 337.248 924.042 339.536 924.042 342.128ZM917.081 340.208C917.049 338.48 916.425 337.104 915.209 336.08C913.993 335.024 912.505 334.496 910.745 334.496C909.081 334.496 907.673 335.008 906.521 336.032C905.401 337.024 904.713 338.416 904.457 340.208H917.081ZM934.226 333.536C935.09 332.128 936.21 331.024 937.586 330.224C938.994 329.424 940.594 329.024 942.386 329.024V336.08H940.61C938.498 336.08 936.898 336.576 935.81 337.568C934.754 338.56 934.226 340.288 934.226 342.752V356H927.506V329.408H934.226V333.536ZM956.561 349.808L963.281 329.408H970.433L960.593 356H952.433L942.641 329.408H949.841L956.561 349.808ZM976.175 326.24C974.991 326.24 973.999 325.872 973.199 325.136C972.431 324.368 972.047 323.424 972.047 322.304C972.047 321.184 972.431 320.256 973.199 319.52C973.999 318.752 974.991 318.368 976.175 318.368C977.359 318.368 978.335 318.752 979.103 319.52C979.903 320.256 980.303 321.184 980.303 322.304C980.303 323.424 979.903 324.368 979.103 325.136C978.335 325.872 977.359 326.24 976.175 326.24ZM979.487 329.408V356H972.767V329.408H979.487ZM1009.41 342.128C1009.41 343.088 1009.34 343.952 1009.21 344.72H989.775C989.935 346.64 990.607 348.144 991.791 349.232C992.975 350.32 994.431 350.864 996.159 350.864C998.655 350.864 1000.43 349.792 1001.49 347.648H1008.73C1007.97 350.208 1006.49 352.32 1004.32 353.984C1002.14 355.616 999.471 356.432 996.303 356.432C993.743 356.432 991.439 355.872 989.391 354.752C987.375 353.6 985.791 351.984 984.639 349.904C983.519 347.824 982.959 345.424 982.959 342.704C982.959 339.952 983.519 337.536 984.639 335.456C985.759 333.376 987.327 331.776 989.343 330.656C991.359 329.536 993.679 328.976 996.303 328.976C998.831 328.976 1001.09 329.52 1003.07 330.608C1005.09 331.696 1006.64 333.248 1007.73 335.264C1008.85 337.248 1009.41 339.536 1009.41 342.128ZM1002.45 340.208C1002.41 338.48 1001.79 337.104 1000.57 336.08C999.359 335.024 997.871 334.496 996.111 334.496C994.447 334.496 993.039 335.008 991.887 336.032C990.767 337.024 990.079 338.416 989.823 340.208H1002.45ZM1049.74 329.408L1041.96 356H1034.71L1029.86 337.424L1025.02 356H1017.72L1009.9 329.408H1016.71L1021.42 349.664L1026.5 329.408H1033.61L1038.6 349.616L1043.3 329.408H1049.74Z" fill="white"/>
<path d="M254.468 456.308H246.902L245.602 460H242.508L248.982 441.904H252.414L258.888 460H255.768L254.468 456.308ZM253.636 453.89L250.698 445.492L247.734 453.89H253.636ZM268.931 445.44C270.058 445.44 271.063 445.674 271.947 446.142C272.848 446.61 273.55 447.303 274.053 448.222C274.556 449.141 274.807 450.25 274.807 451.55V460H271.869V451.992C271.869 450.709 271.548 449.73 270.907 449.054C270.266 448.361 269.39 448.014 268.281 448.014C267.172 448.014 266.288 448.361 265.629 449.054C264.988 449.73 264.667 450.709 264.667 451.992V460H261.703V445.674H264.667V447.312C265.152 446.723 265.768 446.263 266.513 445.934C267.276 445.605 268.082 445.44 268.931 445.44ZM284.354 452.772C284.354 451.333 284.648 450.059 285.238 448.95C285.844 447.841 286.659 446.983 287.682 446.376C288.722 445.752 289.866 445.44 291.114 445.44C292.24 445.44 293.22 445.665 294.052 446.116C294.901 446.549 295.577 447.095 296.08 447.754V445.674H299.07V460H296.08V457.868C295.577 458.544 294.892 459.107 294.026 459.558C293.159 460.009 292.171 460.234 291.062 460.234C289.831 460.234 288.704 459.922 287.682 459.298C286.659 458.657 285.844 457.773 285.238 456.646C284.648 455.502 284.354 454.211 284.354 452.772ZM296.08 452.824C296.08 451.836 295.872 450.978 295.456 450.25C295.057 449.522 294.528 448.967 293.87 448.586C293.211 448.205 292.5 448.014 291.738 448.014C290.975 448.014 290.264 448.205 289.606 448.586C288.947 448.95 288.41 449.496 287.994 450.224C287.595 450.935 287.396 451.784 287.396 452.772C287.396 453.76 287.595 454.627 287.994 455.372C288.41 456.117 288.947 456.689 289.606 457.088C290.282 457.469 290.992 457.66 291.738 457.66C292.5 457.66 293.211 457.469 293.87 457.088C294.528 456.707 295.057 456.152 295.456 455.424C295.872 454.679 296.08 453.812 296.08 452.824ZM305.927 447.78C306.429 447.121 307.114 446.567 307.981 446.116C308.847 445.665 309.827 445.44 310.919 445.44C312.167 445.44 313.302 445.752 314.325 446.376C315.365 446.983 316.179 447.841 316.769 448.95C317.358 450.059 317.653 451.333 317.653 452.772C317.653 454.211 317.358 455.502 316.769 456.646C316.179 457.773 315.365 458.657 314.325 459.298C313.302 459.922 312.167 460.234 310.919 460.234C309.827 460.234 308.856 460.017 308.007 459.584C307.157 459.133 306.464 458.579 305.927 457.92V466.812H302.963V445.674H305.927V447.78ZM314.637 452.772C314.637 451.784 314.429 450.935 314.013 450.224C313.614 449.496 313.077 448.95 312.401 448.586C311.742 448.205 311.031 448.014 310.269 448.014C309.523 448.014 308.813 448.205 308.137 448.586C307.478 448.967 306.941 449.522 306.525 450.25C306.126 450.978 305.927 451.836 305.927 452.824C305.927 453.812 306.126 454.679 306.525 455.424C306.941 456.152 307.478 456.707 308.137 457.088C308.813 457.469 309.523 457.66 310.269 457.66C311.031 457.66 311.742 457.469 312.401 457.088C313.077 456.689 313.614 456.117 314.013 455.372C314.429 454.627 314.637 453.76 314.637 452.772ZM323.548 447.78C324.05 447.121 324.735 446.567 325.602 446.116C326.468 445.665 327.448 445.44 328.54 445.44C329.788 445.44 330.923 445.752 331.946 446.376C332.986 446.983 333.8 447.841 334.39 448.95C334.979 450.059 335.274 451.333 335.274 452.772C335.274 454.211 334.979 455.502 334.39 456.646C333.8 457.773 332.986 458.657 331.946 459.298C330.923 459.922 329.788 460.234 328.54 460.234C327.448 460.234 326.477 460.017 325.628 459.584C324.778 459.133 324.085 458.579 323.548 457.92V466.812H320.584V445.674H323.548V447.78ZM332.258 452.772C332.258 451.784 332.05 450.935 331.634 450.224C331.235 449.496 330.698 448.95 330.022 448.586C329.363 448.205 328.652 448.014 327.89 448.014C327.144 448.014 326.434 448.205 325.758 448.586C325.099 448.967 324.562 449.522 324.146 450.25C323.747 450.978 323.548 451.836 323.548 452.824C323.548 453.812 323.747 454.679 324.146 455.424C324.562 456.152 325.099 456.707 325.758 457.088C326.434 457.469 327.144 457.66 327.89 457.66C328.652 457.66 329.363 457.469 330.022 457.088C330.698 456.689 331.235 456.117 331.634 455.372C332.05 454.627 332.258 453.76 332.258 452.772ZM343.971 452.772C343.971 451.333 344.265 450.059 344.855 448.95C345.461 447.841 346.276 446.983 347.299 446.376C348.339 445.752 349.483 445.44 350.731 445.44C351.857 445.44 352.837 445.665 353.669 446.116C354.518 446.549 355.194 447.095 355.697 447.754V445.674H358.687V460H355.697V457.868C355.194 458.544 354.509 459.107 353.643 459.558C352.776 460.009 351.788 460.234 350.679 460.234C349.448 460.234 348.321 459.922 347.299 459.298C346.276 458.657 345.461 457.773 344.855 456.646C344.265 455.502 343.971 454.211 343.971 452.772ZM355.697 452.824C355.697 451.836 355.489 450.978 355.073 450.25C354.674 449.522 354.145 448.967 353.487 448.586C352.828 448.205 352.117 448.014 351.355 448.014C350.592 448.014 349.881 448.205 349.223 448.586C348.564 448.95 348.027 449.496 347.611 450.224C347.212 450.935 347.013 451.784 347.013 452.772C347.013 453.76 347.212 454.627 347.611 455.372C348.027 456.117 348.564 456.689 349.223 457.088C349.899 457.469 350.609 457.66 351.355 457.66C352.117 457.66 352.828 457.469 353.487 457.088C354.145 456.707 354.674 456.152 355.073 455.424C355.489 454.679 355.697 453.812 355.697 452.824ZM369.808 445.44C370.935 445.44 371.94 445.674 372.824 446.142C373.725 446.61 374.427 447.303 374.93 448.222C375.433 449.141 375.684 450.25 375.684 451.55V460H372.746V451.992C372.746 450.709 372.425 449.73 371.784 449.054C371.143 448.361 370.267 448.014 369.158 448.014C368.049 448.014 367.165 448.361 366.506 449.054C365.865 449.73 365.544 450.709 365.544 451.992V460H362.58V445.674H365.544V447.312C366.029 446.723 366.645 446.263 367.39 445.934C368.153 445.605 368.959 445.44 369.808 445.44ZM378.477 452.772C378.477 451.333 378.771 450.059 379.361 448.95C379.967 447.841 380.782 446.983 381.805 446.376C382.845 445.752 383.997 445.44 385.263 445.44C386.199 445.44 387.117 445.648 388.019 446.064C388.937 446.463 389.665 447 390.203 447.676V440.76H393.193V460H390.203V457.842C389.717 458.535 389.041 459.107 388.175 459.558C387.325 460.009 386.346 460.234 385.237 460.234C383.989 460.234 382.845 459.922 381.805 459.298C380.782 458.657 379.967 457.773 379.361 456.646C378.771 455.502 378.477 454.211 378.477 452.772ZM390.203 452.824C390.203 451.836 389.995 450.978 389.579 450.25C389.18 449.522 388.651 448.967 387.993 448.586C387.334 448.205 386.623 448.014 385.861 448.014C385.098 448.014 384.387 448.205 383.729 448.586C383.07 448.95 382.533 449.496 382.117 450.224C381.718 450.935 381.519 451.784 381.519 452.772C381.519 453.76 381.718 454.627 382.117 455.372C382.533 456.117 383.07 456.689 383.729 457.088C384.405 457.469 385.115 457.66 385.861 457.66C386.623 457.66 387.334 457.469 387.993 457.088C388.651 456.707 389.18 456.152 389.579 455.424C389.995 454.679 390.203 453.812 390.203 452.824ZM402.852 452.772C402.852 451.333 403.146 450.059 403.736 448.95C404.342 447.841 405.157 446.983 406.18 446.376C407.22 445.752 408.364 445.44 409.612 445.44C410.738 445.44 411.718 445.665 412.55 446.116C413.399 446.549 414.075 447.095 414.578 447.754V445.674H417.568V460H414.578V457.868C414.075 458.544 413.39 459.107 412.524 459.558C411.657 460.009 410.669 460.234 409.56 460.234C408.329 460.234 407.202 459.922 406.18 459.298C405.157 458.657 404.342 457.773 403.736 456.646C403.146 455.502 402.852 454.211 402.852 452.772ZM414.578 452.824C414.578 451.836 414.37 450.978 413.954 450.25C413.555 449.522 413.026 448.967 412.368 448.586C411.709 448.205 410.998 448.014 410.236 448.014C409.473 448.014 408.762 448.205 408.104 448.586C407.445 448.95 406.908 449.496 406.492 450.224C406.093 450.935 405.894 451.784 405.894 452.772C405.894 453.76 406.093 454.627 406.492 455.372C406.908 456.117 407.445 456.689 408.104 457.088C408.78 457.469 409.49 457.66 410.236 457.66C410.998 457.66 411.709 457.469 412.368 457.088C413.026 456.707 413.555 456.152 413.954 455.424C414.37 454.679 414.578 453.812 414.578 452.824ZM431.179 447.754C431.612 447.026 432.184 446.463 432.895 446.064C433.623 445.648 434.481 445.44 435.469 445.44V448.508H434.715C433.553 448.508 432.669 448.803 432.063 449.392C431.473 449.981 431.179 451.004 431.179 452.46V460H428.215V445.674H431.179V447.754ZM451.323 452.486C451.323 453.023 451.288 453.509 451.219 453.942H440.273C440.36 455.086 440.784 456.005 441.547 456.698C442.31 457.391 443.246 457.738 444.355 457.738C445.95 457.738 447.076 457.071 447.735 455.736H450.933C450.5 457.053 449.711 458.137 448.567 458.986C447.44 459.818 446.036 460.234 444.355 460.234C442.986 460.234 441.755 459.931 440.663 459.324C439.588 458.7 438.739 457.833 438.115 456.724C437.508 455.597 437.205 454.297 437.205 452.824C437.205 451.351 437.5 450.059 438.089 448.95C438.696 447.823 439.536 446.957 440.611 446.35C441.703 445.743 442.951 445.44 444.355 445.44C445.707 445.44 446.912 445.735 447.969 446.324C449.026 446.913 449.85 447.745 450.439 448.82C451.028 449.877 451.323 451.099 451.323 452.486ZM448.229 451.55C448.212 450.458 447.822 449.583 447.059 448.924C446.296 448.265 445.352 447.936 444.225 447.936C443.202 447.936 442.327 448.265 441.599 448.924C440.871 449.565 440.438 450.441 440.299 451.55H448.229ZM459.44 460.234C458.313 460.234 457.299 460.035 456.398 459.636C455.514 459.22 454.812 458.665 454.292 457.972C453.772 457.261 453.495 456.473 453.46 455.606H456.528C456.58 456.213 456.866 456.724 457.386 457.14C457.923 457.539 458.591 457.738 459.388 457.738C460.22 457.738 460.861 457.582 461.312 457.27C461.78 456.941 462.014 456.525 462.014 456.022C462.014 455.485 461.754 455.086 461.234 454.826C460.731 454.566 459.925 454.28 458.816 453.968C457.741 453.673 456.866 453.387 456.19 453.11C455.514 452.833 454.925 452.408 454.422 451.836C453.937 451.264 453.694 450.51 453.694 449.574C453.694 448.811 453.919 448.118 454.37 447.494C454.821 446.853 455.462 446.35 456.294 445.986C457.143 445.622 458.114 445.44 459.206 445.44C460.835 445.44 462.144 445.856 463.132 446.688C464.137 447.503 464.675 448.621 464.744 450.042H461.78C461.728 449.401 461.468 448.889 461 448.508C460.532 448.127 459.899 447.936 459.102 447.936C458.322 447.936 457.724 448.083 457.308 448.378C456.892 448.673 456.684 449.063 456.684 449.548C456.684 449.929 456.823 450.25 457.1 450.51C457.377 450.77 457.715 450.978 458.114 451.134C458.513 451.273 459.102 451.455 459.882 451.68C460.922 451.957 461.771 452.243 462.43 452.538C463.106 452.815 463.687 453.231 464.172 453.786C464.657 454.341 464.909 455.077 464.926 455.996C464.926 456.811 464.701 457.539 464.25 458.18C463.799 458.821 463.158 459.324 462.326 459.688C461.511 460.052 460.549 460.234 459.44 460.234ZM471.093 447.78C471.595 447.121 472.28 446.567 473.147 446.116C474.013 445.665 474.993 445.44 476.085 445.44C477.333 445.44 478.468 445.752 479.491 446.376C480.531 446.983 481.345 447.841 481.935 448.95C482.524 450.059 482.819 451.333 482.819 452.772C482.819 454.211 482.524 455.502 481.935 456.646C481.345 457.773 480.531 458.657 479.491 459.298C478.468 459.922 477.333 460.234 476.085 460.234C474.993 460.234 474.022 460.017 473.173 459.584C472.323 459.133 471.63 458.579 471.093 457.92V466.812H468.129V445.674H471.093V447.78ZM479.803 452.772C479.803 451.784 479.595 450.935 479.179 450.224C478.78 449.496 478.243 448.95 477.567 448.586C476.908 448.205 476.197 448.014 475.435 448.014C474.689 448.014 473.979 448.205 473.303 448.586C472.644 448.967 472.107 449.522 471.691 450.25C471.292 450.978 471.093 451.836 471.093 452.824C471.093 453.812 471.292 454.679 471.691 455.424C472.107 456.152 472.644 456.707 473.303 457.088C473.979 457.469 474.689 457.66 475.435 457.66C476.197 457.66 476.908 457.469 477.567 457.088C478.243 456.689 478.78 456.117 479.179 455.372C479.595 454.627 479.803 453.76 479.803 452.772ZM491.964 460.234C490.612 460.234 489.39 459.931 488.298 459.324C487.206 458.7 486.348 457.833 485.724 456.724C485.1 455.597 484.788 454.297 484.788 452.824C484.788 451.368 485.108 450.077 485.75 448.95C486.391 447.823 487.266 446.957 488.376 446.35C489.485 445.743 490.724 445.44 492.094 445.44C493.463 445.44 494.702 445.743 495.812 446.35C496.921 446.957 497.796 447.823 498.438 448.95C499.079 450.077 499.4 451.368 499.4 452.824C499.4 454.28 499.07 455.571 498.412 456.698C497.753 457.825 496.852 458.7 495.708 459.324C494.581 459.931 493.333 460.234 491.964 460.234ZM491.964 457.66C492.726 457.66 493.437 457.478 494.096 457.114C494.772 456.75 495.318 456.204 495.734 455.476C496.15 454.748 496.358 453.864 496.358 452.824C496.358 451.784 496.158 450.909 495.76 450.198C495.361 449.47 494.832 448.924 494.174 448.56C493.515 448.196 492.804 448.014 492.042 448.014C491.279 448.014 490.568 448.196 489.91 448.56C489.268 448.924 488.757 449.47 488.376 450.198C487.994 450.909 487.804 451.784 487.804 452.824C487.804 454.367 488.194 455.563 488.974 456.412C489.771 457.244 490.768 457.66 491.964 457.66ZM509.558 445.44C510.685 445.44 511.69 445.674 512.574 446.142C513.475 446.61 514.177 447.303 514.68 448.222C515.183 449.141 515.434 450.25 515.434 451.55V460H512.496V451.992C512.496 450.709 512.175 449.73 511.534 449.054C510.893 448.361 510.017 448.014 508.908 448.014C507.799 448.014 506.915 448.361 506.256 449.054C505.615 449.73 505.294 450.709 505.294 451.992V460H502.33V445.674H505.294V447.312C505.779 446.723 506.395 446.263 507.14 445.934C507.903 445.605 508.709 445.44 509.558 445.44ZM524.415 460.234C523.288 460.234 522.274 460.035 521.373 459.636C520.489 459.22 519.787 458.665 519.267 457.972C518.747 457.261 518.469 456.473 518.435 455.606H521.503C521.555 456.213 521.841 456.724 522.361 457.14C522.898 457.539 523.565 457.738 524.363 457.738C525.195 457.738 525.836 457.582 526.287 457.27C526.755 456.941 526.989 456.525 526.989 456.022C526.989 455.485 526.729 455.086 526.209 454.826C525.706 454.566 524.9 454.28 523.791 453.968C522.716 453.673 521.841 453.387 521.165 453.11C520.489 452.833 519.899 452.408 519.397 451.836C518.911 451.264 518.669 450.51 518.669 449.574C518.669 448.811 518.894 448.118 519.345 447.494C519.795 446.853 520.437 446.35 521.269 445.986C522.118 445.622 523.089 445.44 524.181 445.44C525.81 445.44 527.119 445.856 528.107 446.688C529.112 447.503 529.649 448.621 529.719 450.042H526.755C526.703 449.401 526.443 448.889 525.975 448.508C525.507 448.127 524.874 447.936 524.077 447.936C523.297 447.936 522.699 448.083 522.283 448.378C521.867 448.673 521.659 449.063 521.659 449.548C521.659 449.929 521.797 450.25 522.075 450.51C522.352 450.77 522.69 450.978 523.089 451.134C523.487 451.273 524.077 451.455 524.857 451.68C525.897 451.957 526.746 452.243 527.405 452.538C528.081 452.815 528.661 453.231 529.147 453.786C529.632 454.341 529.883 455.077 529.901 455.996C529.901 456.811 529.675 457.539 529.225 458.18C528.774 458.821 528.133 459.324 527.301 459.688C526.486 460.052 525.524 460.234 524.415 460.234ZM534.611 443.776C534.074 443.776 533.623 443.594 533.259 443.23C532.895 442.866 532.713 442.415 532.713 441.878C532.713 441.341 532.895 440.89 533.259 440.526C533.623 440.162 534.074 439.98 534.611 439.98C535.131 439.98 535.573 440.162 535.937 440.526C536.301 440.89 536.483 441.341 536.483 441.878C536.483 442.415 536.301 442.866 535.937 443.23C535.573 443.594 535.131 443.776 534.611 443.776ZM536.067 445.674V460H533.103V445.674H536.067ZM545.497 457.348L549.553 445.674H552.699L547.239 460H543.703L538.269 445.674H541.441L545.497 457.348ZM568.069 452.486C568.069 453.023 568.035 453.509 567.965 453.942H557.019C557.106 455.086 557.531 456.005 558.293 456.698C559.056 457.391 559.992 457.738 561.101 457.738C562.696 457.738 563.823 457.071 564.481 455.736H567.679C567.246 457.053 566.457 458.137 565.313 458.986C564.187 459.818 562.783 460.234 561.101 460.234C559.732 460.234 558.501 459.931 557.409 459.324C556.335 458.7 555.485 457.833 554.861 456.724C554.255 455.597 553.951 454.297 553.951 452.824C553.951 451.351 554.246 450.059 554.835 448.95C555.442 447.823 556.283 446.957 557.357 446.35C558.449 445.743 559.697 445.44 561.101 445.44C562.453 445.44 563.658 445.735 564.715 446.324C565.773 446.913 566.596 447.745 567.185 448.82C567.775 449.877 568.069 451.099 568.069 452.486ZM564.975 451.55C564.958 450.458 564.568 449.583 563.805 448.924C563.043 448.265 562.098 447.936 560.971 447.936C559.949 447.936 559.073 448.265 558.345 448.924C557.617 449.565 557.184 450.441 557.045 451.55H564.975ZM596.98 445.674L592.534 460H589.414L586.528 449.418L583.642 460H580.522L576.05 445.674H579.066L582.056 457.192L585.098 445.674H588.192L591.104 457.14L594.068 445.674H596.98ZM612.325 452.486C612.325 453.023 612.29 453.509 612.221 453.942H601.275C601.362 455.086 601.786 456.005 602.549 456.698C603.312 457.391 604.248 457.738 605.357 457.738C606.952 457.738 608.078 457.071 608.737 455.736H611.935C611.502 457.053 610.713 458.137 609.569 458.986C608.442 459.818 607.038 460.234 605.357 460.234C603.988 460.234 602.757 459.931 601.665 459.324C600.59 458.7 599.741 457.833 599.117 456.724C598.51 455.597 598.207 454.297 598.207 452.824C598.207 451.351 598.502 450.059 599.091 448.95C599.698 447.823 600.538 446.957 601.613 446.35C602.705 445.743 603.953 445.44 605.357 445.44C606.709 445.44 607.914 445.735 608.971 446.324C610.028 446.913 610.852 447.745 611.441 448.82C612.03 449.877 612.325 451.099 612.325 452.486ZM609.231 451.55C609.214 450.458 608.824 449.583 608.061 448.924C607.298 448.265 606.354 447.936 605.227 447.936C604.204 447.936 603.329 448.265 602.601 448.924C601.873 449.565 601.44 450.441 601.301 451.55H609.231ZM618.206 447.806C618.709 447.113 619.393 446.549 620.26 446.116C621.144 445.665 622.123 445.44 623.198 445.44C624.463 445.44 625.607 445.743 626.63 446.35C627.653 446.957 628.459 447.823 629.048 448.95C629.637 450.059 629.932 451.333 629.932 452.772C629.932 454.211 629.637 455.502 629.048 456.646C628.459 457.773 627.644 458.657 626.604 459.298C625.581 459.922 624.446 460.234 623.198 460.234C622.089 460.234 621.101 460.017 620.234 459.584C619.385 459.151 618.709 458.596 618.206 457.92V460H615.242V440.76H618.206V447.806ZM626.916 452.772C626.916 451.784 626.708 450.935 626.292 450.224C625.893 449.496 625.356 448.95 624.68 448.586C624.021 448.205 623.311 448.014 622.548 448.014C621.803 448.014 621.092 448.205 620.416 448.586C619.757 448.967 619.22 449.522 618.804 450.25C618.405 450.978 618.206 451.836 618.206 452.824C618.206 453.812 618.405 454.679 618.804 455.424C619.22 456.152 619.757 456.707 620.416 457.088C621.092 457.469 621.803 457.66 622.548 457.66C623.311 457.66 624.021 457.469 624.68 457.088C625.356 456.689 625.893 456.117 626.292 455.372C626.708 454.627 626.916 453.76 626.916 452.772ZM638.063 460.234C636.936 460.234 635.922 460.035 635.021 459.636C634.137 459.22 633.435 458.665 632.915 457.972C632.395 457.261 632.118 456.473 632.083 455.606H635.151C635.203 456.213 635.489 456.724 636.009 457.14C636.546 457.539 637.214 457.738 638.011 457.738C638.843 457.738 639.484 457.582 639.935 457.27C640.403 456.941 640.637 456.525 640.637 456.022C640.637 455.485 640.377 455.086 639.857 454.826C639.354 454.566 638.548 454.28 637.439 453.968C636.364 453.673 635.489 453.387 634.813 453.11C634.137 452.833 633.548 452.408 633.045 451.836C632.56 451.264 632.317 450.51 632.317 449.574C632.317 448.811 632.542 448.118 632.993 447.494C633.444 446.853 634.085 446.35 634.917 445.986C635.766 445.622 636.737 445.44 637.829 445.44C639.458 445.44 640.767 445.856 641.755 446.688C642.76 447.503 643.298 448.621 643.367 450.042H640.403C640.351 449.401 640.091 448.889 639.623 448.508C639.155 448.127 638.522 447.936 637.725 447.936C636.945 447.936 636.347 448.083 635.931 448.378C635.515 448.673 635.307 449.063 635.307 449.548C635.307 449.929 635.446 450.25 635.723 450.51C636 450.77 636.338 450.978 636.737 451.134C637.136 451.273 637.725 451.455 638.505 451.68C639.545 451.957 640.394 452.243 641.053 452.538C641.729 452.815 642.31 453.231 642.795 453.786C643.28 454.341 643.532 455.077 643.549 455.996C643.549 456.811 643.324 457.539 642.873 458.18C642.422 458.821 641.781 459.324 640.949 459.688C640.134 460.052 639.172 460.234 638.063 460.234ZM648.26 443.776C647.722 443.776 647.272 443.594 646.908 443.23C646.544 442.866 646.362 442.415 646.362 441.878C646.362 441.341 646.544 440.89 646.908 440.526C647.272 440.162 647.722 439.98 648.26 439.98C648.78 439.98 649.222 440.162 649.586 440.526C649.95 440.89 650.132 441.341 650.132 441.878C650.132 442.415 649.95 442.866 649.586 443.23C649.222 443.594 648.78 443.776 648.26 443.776ZM649.716 445.674V460H646.752V445.674H649.716ZM657.065 448.092V456.022C657.065 456.559 657.187 456.949 657.429 457.192C657.689 457.417 658.123 457.53 658.729 457.53H660.549V460H658.209C656.875 460 655.852 459.688 655.141 459.064C654.431 458.44 654.075 457.426 654.075 456.022V448.092H652.385V445.674H654.075V442.112H657.065V445.674H660.549V448.092H657.065ZM676.411 452.486C676.411 453.023 676.376 453.509 676.307 453.942H665.361C665.448 455.086 665.872 456.005 666.635 456.698C667.398 457.391 668.334 457.738 669.443 457.738C671.038 457.738 672.164 457.071 672.823 455.736H676.021C675.588 457.053 674.799 458.137 673.655 458.986C672.528 459.818 671.124 460.234 669.443 460.234C668.074 460.234 666.843 459.931 665.751 459.324C664.676 458.7 663.827 457.833 663.203 456.724C662.596 455.597 662.293 454.297 662.293 452.824C662.293 451.351 662.588 450.059 663.177 448.95C663.784 447.823 664.624 446.957 665.699 446.35C666.791 445.743 668.039 445.44 669.443 445.44C670.795 445.44 672 445.735 673.057 446.324C674.114 446.913 674.938 447.745 675.527 448.82C676.116 449.877 676.411 451.099 676.411 452.486ZM673.317 451.55C673.3 450.458 672.91 449.583 672.147 448.924C671.384 448.265 670.44 447.936 669.313 447.936C668.29 447.936 667.415 448.265 666.687 448.924C665.959 449.565 665.526 450.441 665.387 451.55H673.317ZM689.54 448.092V456.022C689.54 456.559 689.661 456.949 689.904 457.192C690.164 457.417 690.597 457.53 691.204 457.53H693.024V460H690.684C689.349 460 688.327 459.688 687.616 459.064C686.905 458.44 686.55 457.426 686.55 456.022V448.092H684.86V445.674H686.55V442.112H689.54V445.674H693.024V448.092H689.54ZM703.166 445.44C704.258 445.44 705.228 445.674 706.078 446.142C706.944 446.61 707.62 447.303 708.106 448.222C708.608 449.141 708.86 450.25 708.86 451.55V460H705.922V451.992C705.922 450.709 705.601 449.73 704.96 449.054C704.318 448.361 703.443 448.014 702.334 448.014C701.224 448.014 700.34 448.361 699.682 449.054C699.04 449.73 698.72 450.709 698.72 451.992V460H695.756V440.76H698.72V447.338C699.222 446.731 699.855 446.263 700.618 445.934C701.398 445.605 702.247 445.44 703.166 445.44ZM711.652 452.772C711.652 451.333 711.947 450.059 712.536 448.95C713.143 447.841 713.958 446.983 714.98 446.376C716.02 445.752 717.164 445.44 718.412 445.44C719.539 445.44 720.518 445.665 721.35 446.116C722.2 446.549 722.876 447.095 723.378 447.754V445.674H726.368V460H723.378V457.868C722.876 458.544 722.191 459.107 721.324 459.558C720.458 460.009 719.47 460.234 718.36 460.234C717.13 460.234 716.003 459.922 714.98 459.298C713.958 458.657 713.143 457.773 712.536 456.646C711.947 455.502 711.652 454.211 711.652 452.772ZM723.378 452.824C723.378 451.836 723.17 450.978 722.754 450.25C722.356 449.522 721.827 448.967 721.168 448.586C720.51 448.205 719.799 448.014 719.036 448.014C718.274 448.014 717.563 448.205 716.904 448.586C716.246 448.95 715.708 449.496 715.292 450.224C714.894 450.935 714.694 451.784 714.694 452.772C714.694 453.76 714.894 454.627 715.292 455.372C715.708 456.117 716.246 456.689 716.904 457.088C717.58 457.469 718.291 457.66 719.036 457.66C719.799 457.66 720.51 457.469 721.168 457.088C721.827 456.707 722.356 456.152 722.754 455.424C723.17 454.679 723.378 453.812 723.378 452.824ZM733.72 448.092V456.022C733.72 456.559 733.841 456.949 734.084 457.192C734.344 457.417 734.777 457.53 735.384 457.53H737.204V460H734.864C733.529 460 732.506 459.688 731.796 459.064C731.085 458.44 730.73 457.426 730.73 456.022V448.092H729.04V445.674H730.73V442.112H733.72V445.674H737.204V448.092H733.72ZM759.819 452.486C759.819 453.023 759.785 453.509 759.715 453.942H748.769C748.856 455.086 749.281 456.005 750.043 456.698C750.806 457.391 751.742 457.738 752.851 457.738C754.446 457.738 755.573 457.071 756.231 455.736H759.429C758.996 457.053 758.207 458.137 757.063 458.986C755.937 459.818 754.533 460.234 752.851 460.234C751.482 460.234 750.251 459.931 749.159 459.324C748.085 458.7 747.235 457.833 746.611 456.724C746.005 455.597 745.701 454.297 745.701 452.824C745.701 451.351 745.996 450.059 746.585 448.95C747.192 447.823 748.033 446.957 749.107 446.35C750.199 445.743 751.447 445.44 752.851 445.44C754.203 445.44 755.408 445.735 756.465 446.324C757.523 446.913 758.346 447.745 758.935 448.82C759.525 449.877 759.819 451.099 759.819 452.486ZM756.725 451.55C756.708 450.458 756.318 449.583 755.555 448.924C754.793 448.265 753.848 447.936 752.721 447.936C751.699 447.936 750.823 448.265 750.095 448.924C749.367 449.565 748.934 450.441 748.795 451.55H756.725ZM769.964 445.44C771.091 445.44 772.096 445.674 772.98 446.142C773.881 446.61 774.583 447.303 775.086 448.222C775.589 449.141 775.84 450.25 775.84 451.55V460H772.902V451.992C772.902 450.709 772.581 449.73 771.94 449.054C771.299 448.361 770.423 448.014 769.314 448.014C768.205 448.014 767.321 448.361 766.662 449.054C766.021 449.73 765.7 450.709 765.7 451.992V460H762.736V445.674H765.7V447.312C766.185 446.723 766.801 446.263 767.546 445.934C768.309 445.605 769.115 445.44 769.964 445.44ZM778.633 452.772C778.633 451.333 778.928 450.059 779.517 448.95C780.124 447.841 780.938 446.983 781.961 446.376C783.001 445.752 784.145 445.44 785.393 445.44C786.52 445.44 787.499 445.665 788.331 446.116C789.18 446.549 789.856 447.095 790.359 447.754V445.674H793.349V460H790.359V457.868C789.856 458.544 789.172 459.107 788.305 459.558C787.438 460.009 786.45 460.234 785.341 460.234C784.11 460.234 782.984 459.922 781.961 459.298C780.938 458.657 780.124 457.773 779.517 456.646C778.928 455.502 778.633 454.211 778.633 452.772ZM790.359 452.824C790.359 451.836 790.151 450.978 789.735 450.25C789.336 449.522 788.808 448.967 788.149 448.586C787.49 448.205 786.78 448.014 786.017 448.014C785.254 448.014 784.544 448.205 783.885 448.586C783.226 448.95 782.689 449.496 782.273 450.224C781.874 450.935 781.675 451.784 781.675 452.772C781.675 453.76 781.874 454.627 782.273 455.372C782.689 456.117 783.226 456.689 783.885 457.088C784.561 457.469 785.272 457.66 786.017 457.66C786.78 457.66 787.49 457.469 788.149 457.088C788.808 456.707 789.336 456.152 789.735 455.424C790.151 454.679 790.359 453.812 790.359 452.824ZM800.206 447.806C800.709 447.113 801.393 446.549 802.26 446.116C803.144 445.665 804.123 445.44 805.198 445.44C806.463 445.44 807.607 445.743 808.63 446.35C809.653 446.957 810.459 447.823 811.048 448.95C811.637 450.059 811.932 451.333 811.932 452.772C811.932 454.211 811.637 455.502 811.048 456.646C810.459 457.773 809.644 458.657 808.604 459.298C807.581 459.922 806.446 460.234 805.198 460.234C804.089 460.234 803.101 460.017 802.234 459.584C801.385 459.151 800.709 458.596 800.206 457.92V460H797.242V440.76H800.206V447.806ZM808.916 452.772C808.916 451.784 808.708 450.935 808.292 450.224C807.893 449.496 807.356 448.95 806.68 448.586C806.021 448.205 805.311 448.014 804.548 448.014C803.803 448.014 803.092 448.205 802.416 448.586C801.757 448.967 801.22 449.522 800.804 450.25C800.405 450.978 800.206 451.836 800.206 452.824C800.206 453.812 800.405 454.679 800.804 455.424C801.22 456.152 801.757 456.707 802.416 457.088C803.092 457.469 803.803 457.66 804.548 457.66C805.311 457.66 806.021 457.469 806.68 457.088C807.356 456.689 807.893 456.117 808.292 455.372C808.708 454.627 808.916 453.76 808.916 452.772ZM817.827 440.76V460H814.863V440.76H817.827ZM834.849 452.486C834.849 453.023 834.814 453.509 834.745 453.942H823.799C823.885 455.086 824.31 456.005 825.073 456.698C825.835 457.391 826.771 457.738 827.881 457.738C829.475 457.738 830.602 457.071 831.261 455.736H834.459C834.025 457.053 833.237 458.137 832.093 458.986C830.966 459.818 829.562 460.234 827.881 460.234C826.511 460.234 825.281 459.931 824.189 459.324C823.114 458.7 822.265 457.833 821.641 456.724C821.034 455.597 820.731 454.297 820.731 452.824C820.731 451.351 821.025 450.059 821.615 448.95C822.221 447.823 823.062 446.957 824.137 446.35C825.229 445.743 826.477 445.44 827.881 445.44C829.233 445.44 830.437 445.735 831.495 446.324C832.552 446.913 833.375 447.745 833.965 448.82C834.554 449.877 834.849 451.099 834.849 452.486ZM831.755 451.55C831.737 450.458 831.347 449.583 830.585 448.924C829.822 448.265 828.877 447.936 827.751 447.936C826.728 447.936 825.853 448.265 825.125 448.924C824.397 449.565 823.963 450.441 823.825 451.55H831.755ZM842.965 460.234C841.839 460.234 840.825 460.035 839.923 459.636C839.039 459.22 838.337 458.665 837.817 457.972C837.297 457.261 837.02 456.473 836.985 455.606H840.053C840.105 456.213 840.391 456.724 840.911 457.14C841.449 457.539 842.116 457.738 842.913 457.738C843.745 457.738 844.387 457.582 844.837 457.27C845.305 456.941 845.539 456.525 845.539 456.022C845.539 455.485 845.279 455.086 844.759 454.826C844.257 454.566 843.451 454.28 842.341 453.968C841.267 453.673 840.391 453.387 839.715 453.11C839.039 452.833 838.45 452.408 837.947 451.836C837.462 451.264 837.219 450.51 837.219 449.574C837.219 448.811 837.445 448.118 837.895 447.494C838.346 446.853 838.987 446.35 839.819 445.986C840.669 445.622 841.639 445.44 842.731 445.44C844.361 445.44 845.669 445.856 846.657 446.688C847.663 447.503 848.2 448.621 848.269 450.042H845.305C845.253 449.401 844.993 448.889 844.525 448.508C844.057 448.127 843.425 447.936 842.627 447.936C841.847 447.936 841.249 448.083 840.833 448.378C840.417 448.673 840.209 449.063 840.209 449.548C840.209 449.929 840.348 450.25 840.625 450.51C840.903 450.77 841.241 450.978 841.639 451.134C842.038 451.273 842.627 451.455 843.407 451.68C844.447 451.957 845.297 452.243 845.955 452.538C846.631 452.815 847.212 453.231 847.697 453.786C848.183 454.341 848.434 455.077 848.451 455.996C848.451 456.811 848.226 457.539 847.775 458.18C847.325 458.821 846.683 459.324 845.851 459.688C845.037 460.052 844.075 460.234 842.965 460.234ZM861.372 447.78C861.875 447.121 862.559 446.567 863.426 446.116C864.293 445.665 865.272 445.44 866.364 445.44C867.612 445.44 868.747 445.752 869.77 446.376C870.81 446.983 871.625 447.841 872.214 448.95C872.803 450.059 873.098 451.333 873.098 452.772C873.098 454.211 872.803 455.502 872.214 456.646C871.625 457.773 870.81 458.657 869.77 459.298C868.747 459.922 867.612 460.234 866.364 460.234C865.272 460.234 864.301 460.017 863.452 459.584C862.603 459.133 861.909 458.579 861.372 457.92V466.812H858.408V445.674H861.372V447.78ZM870.082 452.772C870.082 451.784 869.874 450.935 869.458 450.224C869.059 449.496 868.522 448.95 867.846 448.586C867.187 448.205 866.477 448.014 865.714 448.014C864.969 448.014 864.258 448.205 863.582 448.586C862.923 448.967 862.386 449.522 861.97 450.25C861.571 450.978 861.372 451.836 861.372 452.824C861.372 453.812 861.571 454.679 861.97 455.424C862.386 456.152 862.923 456.707 863.582 457.088C864.258 457.469 864.969 457.66 865.714 457.66C866.477 457.66 867.187 457.469 867.846 457.088C868.522 456.689 869.059 456.117 869.458 455.372C869.874 454.627 870.082 453.76 870.082 452.772ZM875.041 452.772C875.041 451.333 875.336 450.059 875.925 448.95C876.532 447.841 877.346 446.983 878.369 446.376C879.409 445.752 880.553 445.44 881.801 445.44C882.928 445.44 883.907 445.665 884.739 446.116C885.588 446.549 886.264 447.095 886.767 447.754V445.674H889.757V460H886.767V457.868C886.264 458.544 885.58 459.107 884.713 459.558C883.846 460.009 882.858 460.234 881.749 460.234C880.518 460.234 879.392 459.922 878.369 459.298C877.346 458.657 876.532 457.773 875.925 456.646C875.336 455.502 875.041 454.211 875.041 452.772ZM886.767 452.824C886.767 451.836 886.559 450.978 886.143 450.25C885.744 449.522 885.216 448.967 884.557 448.586C883.898 448.205 883.188 448.014 882.425 448.014C881.662 448.014 880.952 448.205 880.293 448.586C879.634 448.95 879.097 449.496 878.681 450.224C878.282 450.935 878.083 451.784 878.083 452.772C878.083 453.76 878.282 454.627 878.681 455.372C879.097 456.117 879.634 456.689 880.293 457.088C880.969 457.469 881.68 457.66 882.425 457.66C883.188 457.66 883.898 457.469 884.557 457.088C885.216 456.707 885.744 456.152 886.143 455.424C886.559 454.679 886.767 453.812 886.767 452.824ZM896.614 447.754C897.048 447.026 897.62 446.463 898.33 446.064C899.058 445.648 899.916 445.44 900.904 445.44V448.508H900.15C898.989 448.508 898.105 448.803 897.498 449.392C896.909 449.981 896.614 451.004 896.614 452.46V460H893.65V445.674H896.614V447.754ZM916.759 452.486C916.759 453.023 916.724 453.509 916.655 453.942H905.709C905.795 455.086 906.22 456.005 906.983 456.698C907.745 457.391 908.681 457.738 909.791 457.738C911.385 457.738 912.512 457.071 913.171 455.736H916.369C915.935 457.053 915.147 458.137 914.003 458.986C912.876 459.818 911.472 460.234 909.791 460.234C908.421 460.234 907.191 459.931 906.099 459.324C905.024 458.7 904.175 457.833 903.551 456.724C902.944 455.597 902.641 454.297 902.641 452.824C902.641 451.351 902.935 450.059 903.525 448.95C904.131 447.823 904.972 446.957 906.047 446.35C907.139 445.743 908.387 445.44 909.791 445.44C911.143 445.44 912.347 445.735 913.405 446.324C914.462 446.913 915.285 447.745 915.875 448.82C916.464 449.877 916.759 451.099 916.759 452.486ZM913.665 451.55C913.647 450.458 913.257 449.583 912.495 448.924C911.732 448.265 910.787 447.936 909.661 447.936C908.638 447.936 907.763 448.265 907.035 448.924C906.307 449.565 905.873 450.441 905.735 451.55H913.665ZM926.904 445.44C928.03 445.44 929.036 445.674 929.92 446.142C930.821 446.61 931.523 447.303 932.026 448.222C932.528 449.141 932.78 450.25 932.78 451.55V460H929.842V451.992C929.842 450.709 929.521 449.73 928.88 449.054C928.238 448.361 927.363 448.014 926.254 448.014C925.144 448.014 924.26 448.361 923.602 449.054C922.96 449.73 922.64 450.709 922.64 451.992V460H919.676V445.674H922.64V447.312C923.125 446.723 923.74 446.263 924.486 445.934C925.248 445.605 926.054 445.44 926.904 445.44ZM940.018 448.092V456.022C940.018 456.559 940.14 456.949 940.382 457.192C940.642 457.417 941.076 457.53 941.682 457.53H943.502V460H941.162C939.828 460 938.805 459.688 938.094 459.064C937.384 458.44 937.028 457.426 937.028 456.022V448.092H935.338V445.674H937.028V442.112H940.018V445.674H943.502V448.092H940.018ZM951.434 460.234C950.308 460.234 949.294 460.035 948.392 459.636C947.508 459.22 946.806 458.665 946.286 457.972C945.766 457.261 945.489 456.473 945.454 455.606H948.522C948.574 456.213 948.86 456.724 949.38 457.14C949.918 457.539 950.585 457.738 951.382 457.738C952.214 457.738 952.856 457.582 953.306 457.27C953.774 456.941 954.008 456.525 954.008 456.022C954.008 455.485 953.748 455.086 953.228 454.826C952.726 454.566 951.92 454.28 950.81 453.968C949.736 453.673 948.86 453.387 948.184 453.11C947.508 452.833 946.919 452.408 946.416 451.836C945.931 451.264 945.688 450.51 945.688 449.574C945.688 448.811 945.914 448.118 946.364 447.494C946.815 446.853 947.456 446.35 948.288 445.986C949.138 445.622 950.108 445.44 951.2 445.44C952.83 445.44 954.138 445.856 955.126 446.688C956.132 447.503 956.669 448.621 956.738 450.042H953.774C953.722 449.401 953.462 448.889 952.994 448.508C952.526 448.127 951.894 447.936 951.096 447.936C950.316 447.936 949.718 448.083 949.302 448.378C948.886 448.673 948.678 449.063 948.678 449.548C948.678 449.929 948.817 450.25 949.094 450.51C949.372 450.77 949.71 450.978 950.108 451.134C950.507 451.273 951.096 451.455 951.876 451.68C952.916 451.957 953.766 452.243 954.424 452.538C955.1 452.815 955.681 453.231 956.166 453.786C956.652 454.341 956.903 455.077 956.92 455.996C956.92 456.811 956.695 457.539 956.244 458.18C955.794 458.821 955.152 459.324 954.32 459.688C953.506 460.052 952.544 460.234 951.434 460.234ZM970.335 448.092V456.022C970.335 456.559 970.456 456.949 970.699 457.192C970.959 457.417 971.392 457.53 971.999 457.53H973.819V460H971.479C970.144 460 969.121 459.688 968.411 459.064C967.7 458.44 967.345 457.426 967.345 456.022V448.092H965.655V445.674H967.345V442.112H970.335V445.674H973.819V448.092H970.335ZM982.765 460.234C981.413 460.234 980.191 459.931 979.099 459.324C978.007 458.7 977.149 457.833 976.525 456.724C975.901 455.597 975.589 454.297 975.589 452.824C975.589 451.368 975.909 450.077 976.551 448.95C977.192 447.823 978.067 446.957 979.177 446.35C980.286 445.743 981.525 445.44 982.895 445.44C984.264 445.44 985.503 445.743 986.613 446.35C987.722 446.957 988.597 447.823 989.239 448.95C989.88 450.077 990.201 451.368 990.201 452.824C990.201 454.28 989.871 455.571 989.213 456.698C988.554 457.825 987.653 458.7 986.509 459.324C985.382 459.931 984.134 460.234 982.765 460.234ZM982.765 457.66C983.527 457.66 984.238 457.478 984.897 457.114C985.573 456.75 986.119 456.204 986.535 455.476C986.951 454.748 987.159 453.864 987.159 452.824C987.159 451.784 986.959 450.909 986.561 450.198C986.162 449.47 985.633 448.924 984.975 448.56C984.316 448.196 983.605 448.014 982.843 448.014C982.08 448.014 981.369 448.196 980.711 448.56C980.069 448.924 979.558 449.47 979.177 450.198C978.795 450.909 978.605 451.784 978.605 452.824C978.605 454.367 978.995 455.563 979.775 456.412C980.572 457.244 981.569 457.66 982.765 457.66ZM1005.08 460.234C1003.96 460.234 1002.94 460.035 1002.04 459.636C1001.16 459.22 1000.46 458.665 999.937 457.972C999.417 457.261 999.139 456.473 999.105 455.606H1002.17C1002.22 456.213 1002.51 456.724 1003.03 457.14C1003.57 457.539 1004.24 457.738 1005.03 457.738C1005.86 457.738 1006.51 457.582 1006.96 457.27C1007.42 456.941 1007.66 456.525 1007.66 456.022C1007.66 455.485 1007.4 455.086 1006.88 454.826C1006.38 454.566 1005.57 454.28 1004.46 453.968C1003.39 453.673 1002.51 453.387 1001.83 453.11C1001.16 452.833 1000.57 452.408 1000.07 451.836C999.581 451.264 999.339 450.51 999.339 449.574C999.339 448.811 999.564 448.118 1000.01 447.494C1000.47 446.853 1001.11 446.35 1001.94 445.986C1002.79 445.622 1003.76 445.44 1004.85 445.44C1006.48 445.44 1007.79 445.856 1008.78 446.688C1009.78 447.503 1010.32 448.621 1010.39 450.042H1007.42C1007.37 449.401 1007.11 448.889 1006.64 448.508C1006.18 448.127 1005.54 447.936 1004.75 447.936C1003.97 447.936 1003.37 448.083 1002.95 448.378C1002.54 448.673 1002.33 449.063 1002.33 449.548C1002.33 449.929 1002.47 450.25 1002.74 450.51C1003.02 450.77 1003.36 450.978 1003.76 451.134C1004.16 451.273 1004.75 451.455 1005.53 451.68C1006.57 451.957 1007.42 452.243 1008.07 452.538C1008.75 452.815 1009.33 453.231 1009.82 453.786C1010.3 454.341 1010.55 455.077 1010.57 455.996C1010.57 456.811 1010.35 457.539 1009.89 458.18C1009.44 458.821 1008.8 459.324 1007.97 459.688C1007.16 460.052 1006.19 460.234 1005.08 460.234ZM1026.9 452.486C1026.9 453.023 1026.87 453.509 1026.8 453.942H1015.85C1015.94 455.086 1016.36 456.005 1017.13 456.698C1017.89 457.391 1018.83 457.738 1019.94 457.738C1021.53 457.738 1022.66 457.071 1023.32 455.736H1026.51C1026.08 457.053 1025.29 458.137 1024.15 458.986C1023.02 459.818 1021.62 460.234 1019.94 460.234C1018.57 460.234 1017.34 459.931 1016.24 459.324C1015.17 458.7 1014.32 457.833 1013.7 456.724C1013.09 455.597 1012.79 454.297 1012.79 452.824C1012.79 451.351 1013.08 450.059 1013.67 448.95C1014.28 447.823 1015.12 446.957 1016.19 446.35C1017.28 445.743 1018.53 445.44 1019.94 445.44C1021.29 445.44 1022.49 445.735 1023.55 446.324C1024.61 446.913 1025.43 447.745 1026.02 448.82C1026.61 449.877 1026.9 451.099 1026.9 452.486ZM1023.81 451.55C1023.79 450.458 1023.4 449.583 1022.64 448.924C1021.88 448.265 1020.93 447.936 1019.81 447.936C1018.78 447.936 1017.91 448.265 1017.18 448.924C1016.45 449.565 1016.02 450.441 1015.88 451.55H1023.81ZM1028.83 452.772C1028.83 451.333 1029.13 450.059 1029.72 448.95C1030.32 447.841 1031.14 446.983 1032.16 446.376C1033.2 445.752 1034.34 445.44 1035.59 445.44C1036.72 445.44 1037.7 445.665 1038.53 446.116C1039.38 446.549 1040.06 447.095 1040.56 447.754V445.674H1043.55V460H1040.56V457.868C1040.06 458.544 1039.37 459.107 1038.5 459.558C1037.64 460.009 1036.65 460.234 1035.54 460.234C1034.31 460.234 1033.18 459.922 1032.16 459.298C1031.14 458.657 1030.32 457.773 1029.72 456.646C1029.13 455.502 1028.83 454.211 1028.83 452.772ZM1040.56 452.824C1040.56 451.836 1040.35 450.978 1039.93 450.25C1039.54 449.522 1039.01 448.967 1038.35 448.586C1037.69 448.205 1036.98 448.014 1036.22 448.014C1035.45 448.014 1034.74 448.205 1034.08 448.586C1033.43 448.95 1032.89 449.496 1032.47 450.224C1032.07 450.935 1031.87 451.784 1031.87 452.772C1031.87 453.76 1032.07 454.627 1032.47 455.372C1032.89 456.117 1033.43 456.689 1034.08 457.088C1034.76 457.469 1035.47 457.66 1036.22 457.66C1036.98 457.66 1037.69 457.469 1038.35 457.088C1039.01 456.707 1039.54 456.152 1039.93 455.424C1040.35 454.679 1040.56 453.812 1040.56 452.824ZM1050.41 447.754C1050.84 447.026 1051.41 446.463 1052.12 446.064C1052.85 445.648 1053.71 445.44 1054.7 445.44V448.508H1053.94C1052.78 448.508 1051.9 448.803 1051.29 449.392C1050.7 449.981 1050.41 451.004 1050.41 452.46V460H1047.44V445.674H1050.41V447.754ZM1056.43 452.824C1056.43 451.351 1056.73 450.059 1057.32 448.95C1057.92 447.823 1058.75 446.957 1059.81 446.35C1060.87 445.743 1062.08 445.44 1063.45 445.44C1065.19 445.44 1066.62 445.856 1067.74 446.688C1068.89 447.503 1069.66 448.673 1070.06 450.198H1066.86C1066.6 449.487 1066.18 448.933 1065.61 448.534C1065.04 448.135 1064.32 447.936 1063.45 447.936C1062.24 447.936 1061.27 448.369 1060.54 449.236C1059.83 450.085 1059.47 451.281 1059.47 452.824C1059.47 454.367 1059.83 455.571 1060.54 456.438C1061.27 457.305 1062.24 457.738 1063.45 457.738C1065.17 457.738 1066.3 456.984 1066.86 455.476H1070.06C1069.64 456.932 1068.86 458.093 1067.72 458.96C1066.57 459.809 1065.15 460.234 1063.45 460.234C1062.08 460.234 1060.87 459.931 1059.81 459.324C1058.75 458.7 1057.92 457.833 1057.32 456.724C1056.73 455.597 1056.43 454.297 1056.43 452.824ZM1080.42 445.44C1081.51 445.44 1082.48 445.674 1083.33 446.142C1084.2 446.61 1084.87 447.303 1085.36 448.222C1085.86 449.141 1086.11 450.25 1086.11 451.55V460H1083.18V451.992C1083.18 450.709 1082.85 449.73 1082.21 449.054C1081.57 448.361 1080.7 448.014 1079.59 448.014C1078.48 448.014 1077.59 448.361 1076.94 449.054C1076.29 449.73 1075.97 450.709 1075.97 451.992V460H1073.01V440.76H1075.97V447.338C1076.48 446.731 1077.11 446.263 1077.87 445.934C1078.65 445.605 1079.5 445.44 1080.42 445.44ZM1102.65 448.092H1100V460H1097.01V448.092H1095.32V445.674H1097.01V444.66C1097.01 443.013 1097.45 441.817 1098.31 441.072C1099.2 440.309 1100.57 439.928 1102.45 439.928V442.398C1101.54 442.398 1100.91 442.571 1100.55 442.918C1100.18 443.247 1100 443.828 1100 444.66V445.674H1102.65V448.092ZM1111.5 460.234C1110.14 460.234 1108.92 459.931 1107.83 459.324C1106.74 458.7 1105.88 457.833 1105.26 456.724C1104.63 455.597 1104.32 454.297 1104.32 452.824C1104.32 451.368 1104.64 450.077 1105.28 448.95C1105.92 447.823 1106.8 446.957 1107.91 446.35C1109.02 445.743 1110.26 445.44 1111.63 445.44C1112.99 445.44 1114.23 445.743 1115.34 446.35C1116.45 446.957 1117.33 447.823 1117.97 448.95C1118.61 450.077 1118.93 451.368 1118.93 452.824C1118.93 454.28 1118.6 455.571 1117.94 456.698C1117.28 457.825 1116.38 458.7 1115.24 459.324C1114.11 459.931 1112.86 460.234 1111.5 460.234ZM1111.5 457.66C1112.26 457.66 1112.97 457.478 1113.63 457.114C1114.3 456.75 1114.85 456.204 1115.27 455.476C1115.68 454.748 1115.89 453.864 1115.89 452.824C1115.89 451.784 1115.69 450.909 1115.29 450.198C1114.89 449.47 1114.36 448.924 1113.71 448.56C1113.05 448.196 1112.34 448.014 1111.57 448.014C1110.81 448.014 1110.1 448.196 1109.44 448.56C1108.8 448.924 1108.29 449.47 1107.91 450.198C1107.53 450.909 1107.34 451.784 1107.34 452.824C1107.34 454.367 1107.73 455.563 1108.51 456.412C1109.3 457.244 1110.3 457.66 1111.5 457.66ZM1124.83 447.754C1125.26 447.026 1125.83 446.463 1126.54 446.064C1127.27 445.648 1128.13 445.44 1129.12 445.44V448.508H1128.36C1127.2 448.508 1126.32 448.803 1125.71 449.392C1125.12 449.981 1124.83 451.004 1124.83 452.46V460H1121.86V445.674H1124.83V447.754ZM1137.61 452.772C1137.61 451.333 1137.9 450.059 1138.49 448.95C1139.1 447.841 1139.91 446.983 1140.93 446.376C1141.97 445.752 1143.12 445.44 1144.37 445.44C1145.49 445.44 1146.47 445.665 1147.3 446.116C1148.15 446.549 1148.83 447.095 1149.33 447.754V445.674H1152.32V460H1149.33V457.868C1148.83 458.544 1148.14 459.107 1147.28 459.558C1146.41 460.009 1145.42 460.234 1144.31 460.234C1143.08 460.234 1141.96 459.922 1140.93 459.298C1139.91 458.657 1139.1 457.773 1138.49 456.646C1137.9 455.502 1137.61 454.211 1137.61 452.772ZM1149.33 452.824C1149.33 451.836 1149.12 450.978 1148.71 450.25C1148.31 449.522 1147.78 448.967 1147.12 448.586C1146.46 448.205 1145.75 448.014 1144.99 448.014C1144.23 448.014 1143.52 448.205 1142.86 448.586C1142.2 448.95 1141.66 449.496 1141.25 450.224C1140.85 450.935 1140.65 451.784 1140.65 452.772C1140.65 453.76 1140.85 454.627 1141.25 455.372C1141.66 456.117 1142.2 456.689 1142.86 457.088C1143.53 457.469 1144.24 457.66 1144.99 457.66C1145.75 457.66 1146.46 457.469 1147.12 457.088C1147.78 456.707 1148.31 456.152 1148.71 455.424C1149.12 454.679 1149.33 453.812 1149.33 452.824ZM1163.44 445.44C1164.57 445.44 1165.57 445.674 1166.46 446.142C1167.36 446.61 1168.06 447.303 1168.56 448.222C1169.07 449.141 1169.32 450.25 1169.32 451.55V460H1166.38V451.992C1166.38 450.709 1166.06 449.73 1165.42 449.054C1164.78 448.361 1163.9 448.014 1162.79 448.014C1161.68 448.014 1160.8 448.361 1160.14 449.054C1159.5 449.73 1159.18 450.709 1159.18 451.992V460H1156.21V445.674H1159.18V447.312C1159.66 446.723 1160.28 446.263 1161.02 445.934C1161.79 445.605 1162.59 445.44 1163.44 445.44ZM1172.11 452.772C1172.11 451.333 1172.41 450.059 1173 448.95C1173.6 447.841 1174.42 446.983 1175.44 446.376C1176.48 445.752 1177.63 445.44 1178.9 445.44C1179.83 445.44 1180.75 445.648 1181.65 446.064C1182.57 446.463 1183.3 447 1183.84 447.676V440.76H1186.83V460H1183.84V457.842C1183.35 458.535 1182.68 459.107 1181.81 459.558C1180.96 460.009 1179.98 460.234 1178.87 460.234C1177.62 460.234 1176.48 459.922 1175.44 459.298C1174.42 458.657 1173.6 457.773 1173 456.646C1172.41 455.502 1172.11 454.211 1172.11 452.772ZM1183.84 452.824C1183.84 451.836 1183.63 450.978 1183.21 450.25C1182.81 449.522 1182.29 448.967 1181.63 448.586C1180.97 448.205 1180.26 448.014 1179.5 448.014C1178.73 448.014 1178.02 448.205 1177.36 448.586C1176.7 448.95 1176.17 449.496 1175.75 450.224C1175.35 450.935 1175.15 451.784 1175.15 452.772C1175.15 453.76 1175.35 454.627 1175.75 455.372C1176.17 456.117 1176.7 456.689 1177.36 457.088C1178.04 457.469 1178.75 457.66 1179.5 457.66C1180.26 457.66 1180.97 457.469 1181.63 457.088C1182.29 456.707 1182.81 456.152 1183.21 455.424C1183.63 454.679 1183.84 453.812 1183.84 452.824ZM1200.44 447.806C1200.94 447.113 1201.63 446.549 1202.49 446.116C1203.38 445.665 1204.36 445.44 1205.43 445.44C1206.7 445.44 1207.84 445.743 1208.86 446.35C1209.89 446.957 1210.69 447.823 1211.28 448.95C1211.87 450.059 1212.16 451.333 1212.16 452.772C1212.16 454.211 1211.87 455.502 1211.28 456.646C1210.69 457.773 1209.88 458.657 1208.84 459.298C1207.81 459.922 1206.68 460.234 1205.43 460.234C1204.32 460.234 1203.33 460.017 1202.47 459.584C1201.62 459.151 1200.94 458.596 1200.44 457.92V460H1197.47V440.76H1200.44V447.806ZM1209.15 452.772C1209.15 451.784 1208.94 450.935 1208.52 450.224C1208.13 449.496 1207.59 448.95 1206.91 448.586C1206.25 448.205 1205.54 448.014 1204.78 448.014C1204.04 448.014 1203.32 448.205 1202.65 448.586C1201.99 448.967 1201.45 449.522 1201.04 450.25C1200.64 450.978 1200.44 451.836 1200.44 452.824C1200.44 453.812 1200.64 454.679 1201.04 455.424C1201.45 456.152 1201.99 456.707 1202.65 457.088C1203.32 457.469 1204.04 457.66 1204.78 457.66C1205.54 457.66 1206.25 457.469 1206.91 457.088C1207.59 456.689 1208.13 456.117 1208.52 455.372C1208.94 454.627 1209.15 453.76 1209.15 452.772ZM1221.31 460.234C1219.96 460.234 1218.74 459.931 1217.64 459.324C1216.55 458.7 1215.69 457.833 1215.07 456.724C1214.45 455.597 1214.13 454.297 1214.13 452.824C1214.13 451.368 1214.45 450.077 1215.1 448.95C1215.74 447.823 1216.61 446.957 1217.72 446.35C1218.83 445.743 1220.07 445.44 1221.44 445.44C1222.81 445.44 1224.05 445.743 1225.16 446.35C1226.27 446.957 1227.14 447.823 1227.78 448.95C1228.42 450.077 1228.75 451.368 1228.75 452.824C1228.75 454.28 1228.42 455.571 1227.76 456.698C1227.1 457.825 1226.2 458.7 1225.05 459.324C1223.93 459.931 1222.68 460.234 1221.31 460.234ZM1221.31 457.66C1222.07 457.66 1222.78 457.478 1223.44 457.114C1224.12 456.75 1224.66 456.204 1225.08 455.476C1225.5 454.748 1225.7 453.864 1225.7 452.824C1225.7 451.784 1225.5 450.909 1225.11 450.198C1224.71 449.47 1224.18 448.924 1223.52 448.56C1222.86 448.196 1222.15 448.014 1221.39 448.014C1220.62 448.014 1219.91 448.196 1219.26 448.56C1218.61 448.924 1218.1 449.47 1217.72 450.198C1217.34 450.909 1217.15 451.784 1217.15 452.824C1217.15 454.367 1217.54 455.563 1218.32 456.412C1219.12 457.244 1220.11 457.66 1221.31 457.66ZM1237.89 460.234C1236.54 460.234 1235.32 459.931 1234.22 459.324C1233.13 458.7 1232.27 457.833 1231.65 456.724C1231.03 455.597 1230.71 454.297 1230.71 452.824C1230.71 451.368 1231.03 450.077 1231.68 448.95C1232.32 447.823 1233.19 446.957 1234.3 446.35C1235.41 445.743 1236.65 445.44 1238.02 445.44C1239.39 445.44 1240.63 445.743 1241.74 446.35C1242.85 446.957 1243.72 447.823 1244.36 448.95C1245 450.077 1245.33 451.368 1245.33 452.824C1245.33 454.28 1245 455.571 1244.34 456.698C1243.68 457.825 1242.78 458.7 1241.63 459.324C1240.51 459.931 1239.26 460.234 1237.89 460.234ZM1237.89 457.66C1238.65 457.66 1239.36 457.478 1240.02 457.114C1240.7 456.75 1241.24 456.204 1241.66 455.476C1242.08 454.748 1242.28 453.864 1242.28 452.824C1242.28 451.784 1242.08 450.909 1241.69 450.198C1241.29 449.47 1240.76 448.924 1240.1 448.56C1239.44 448.196 1238.73 448.014 1237.97 448.014C1237.2 448.014 1236.49 448.196 1235.84 448.56C1235.19 448.924 1234.68 449.47 1234.3 450.198C1233.92 450.909 1233.73 451.784 1233.73 452.824C1233.73 454.367 1234.12 455.563 1234.9 456.412C1235.7 457.244 1236.69 457.66 1237.89 457.66ZM1253.92 452.85L1260.53 460H1256.52L1251.22 453.838V460H1248.26V440.76H1251.22V451.94L1256.42 445.674H1260.53L1253.92 452.85ZM1272.86 448.092V456.022C1272.86 456.559 1272.99 456.949 1273.23 457.192C1273.49 457.417 1273.92 457.53 1274.53 457.53H1276.35V460H1274.01C1272.67 460 1271.65 459.688 1270.94 459.064C1270.23 458.44 1269.87 457.426 1269.87 456.022V448.092H1268.18V445.674H1269.87V442.112H1272.86V445.674H1276.35V448.092H1272.86ZM1280.59 443.776C1280.05 443.776 1279.6 443.594 1279.24 443.23C1278.87 442.866 1278.69 442.415 1278.69 441.878C1278.69 441.341 1278.87 440.89 1279.24 440.526C1279.6 440.162 1280.05 439.98 1280.59 439.98C1281.11 439.98 1281.55 440.162 1281.91 440.526C1282.28 440.89 1282.46 441.341 1282.46 441.878C1282.46 442.415 1282.28 442.866 1281.91 443.23C1281.55 443.594 1281.11 443.776 1280.59 443.776ZM1282.04 445.674V460H1279.08V445.674H1282.04ZM1303.28 445.44C1304.4 445.44 1305.41 445.674 1306.29 446.142C1307.19 446.61 1307.9 447.303 1308.4 448.222C1308.92 449.141 1309.18 450.25 1309.18 451.55V460H1306.24V451.992C1306.24 450.709 1305.92 449.73 1305.28 449.054C1304.64 448.361 1303.76 448.014 1302.65 448.014C1301.54 448.014 1300.66 448.361 1300 449.054C1299.36 449.73 1299.04 450.709 1299.04 451.992V460H1296.1V451.992C1296.1 450.709 1295.78 449.73 1295.14 449.054C1294.5 448.361 1293.62 448.014 1292.51 448.014C1291.4 448.014 1290.52 448.361 1289.86 449.054C1289.22 449.73 1288.9 450.709 1288.9 451.992V460H1285.94V445.674H1288.9V447.312C1289.38 446.723 1290 446.263 1290.75 445.934C1291.49 445.605 1292.29 445.44 1293.14 445.44C1294.28 445.44 1295.3 445.683 1296.21 446.168C1297.11 446.653 1297.8 447.355 1298.29 448.274C1298.72 447.407 1299.39 446.723 1300.31 446.22C1301.23 445.7 1302.22 445.44 1303.28 445.44ZM1326.08 452.486C1326.08 453.023 1326.05 453.509 1325.98 453.942H1315.03C1315.12 455.086 1315.54 456.005 1316.3 456.698C1317.07 457.391 1318 457.738 1319.11 457.738C1320.71 457.738 1321.83 457.071 1322.49 455.736H1325.69C1325.26 457.053 1324.47 458.137 1323.32 458.986C1322.2 459.818 1320.79 460.234 1319.11 460.234C1317.74 460.234 1316.51 459.931 1315.42 459.324C1314.35 458.7 1313.5 457.833 1312.87 456.724C1312.27 455.597 1311.96 454.297 1311.96 452.824C1311.96 451.351 1312.26 450.059 1312.85 448.95C1313.45 447.823 1314.29 446.957 1315.37 446.35C1316.46 445.743 1317.71 445.44 1319.11 445.44C1320.46 445.44 1321.67 445.735 1322.73 446.324C1323.78 446.913 1324.61 447.745 1325.2 448.82C1325.79 449.877 1326.08 451.099 1326.08 452.486ZM1322.99 451.55C1322.97 450.458 1322.58 449.583 1321.82 448.924C1321.05 448.265 1320.11 447.936 1318.98 447.936C1317.96 447.936 1317.08 448.265 1316.36 448.924C1315.63 449.565 1315.2 450.441 1315.06 451.55H1322.99ZM1354.99 445.674L1350.55 460H1347.43L1344.54 449.418L1341.65 460H1338.53L1334.06 445.674H1337.08L1340.07 457.192L1343.11 445.674H1346.2L1349.12 457.14L1352.08 445.674H1354.99ZM1358.71 443.776C1358.18 443.776 1357.73 443.594 1357.36 443.23C1357 442.866 1356.82 442.415 1356.82 441.878C1356.82 441.341 1357 440.89 1357.36 440.526C1357.73 440.162 1358.18 439.98 1358.71 439.98C1359.23 439.98 1359.68 440.162 1360.04 440.526C1360.4 440.89 1360.59 441.341 1360.59 441.878C1360.59 442.415 1360.4 442.866 1360.04 443.23C1359.68 443.594 1359.23 443.776 1358.71 443.776ZM1360.17 445.674V460H1357.21V445.674H1360.17ZM1367.52 448.092V456.022C1367.52 456.559 1367.64 456.949 1367.88 457.192C1368.14 457.417 1368.58 457.53 1369.18 457.53H1371V460H1368.66C1367.33 460 1366.31 459.688 1365.6 459.064C1364.89 458.44 1364.53 457.426 1364.53 456.022V448.092H1362.84V445.674H1364.53V442.112H1367.52V445.674H1371V448.092H1367.52ZM1381.15 445.44C1382.24 445.44 1383.21 445.674 1384.06 446.142C1384.92 446.61 1385.6 447.303 1386.09 448.222C1386.59 449.141 1386.84 450.25 1386.84 451.55V460H1383.9V451.992C1383.9 450.709 1383.58 449.73 1382.94 449.054C1382.3 448.361 1381.42 448.014 1380.31 448.014C1379.2 448.014 1378.32 448.361 1377.66 449.054C1377.02 449.73 1376.7 450.709 1376.7 451.992V460H1373.74V440.76H1376.7V447.338C1377.2 446.731 1377.84 446.263 1378.6 445.934C1379.38 445.605 1380.23 445.44 1381.15 445.44ZM1400.83 448.092V456.022C1400.83 456.559 1400.95 456.949 1401.2 457.192C1401.46 457.417 1401.89 457.53 1402.5 457.53H1404.32V460H1401.98C1400.64 460 1399.62 459.688 1398.91 459.064C1398.2 458.44 1397.84 457.426 1397.84 456.022V448.092H1396.15V445.674H1397.84V442.112H1400.83V445.674H1404.32V448.092H1400.83ZM1420.02 445.674V460H1417.06V458.31C1416.59 458.899 1415.98 459.367 1415.21 459.714C1414.47 460.043 1413.67 460.208 1412.82 460.208C1411.69 460.208 1410.68 459.974 1409.78 459.506C1408.89 459.038 1408.19 458.345 1407.67 457.426C1407.17 456.507 1406.92 455.398 1406.92 454.098V445.674H1409.86V453.656C1409.86 454.939 1410.18 455.927 1410.82 456.62C1411.46 457.296 1412.34 457.634 1413.44 457.634C1414.55 457.634 1415.43 457.296 1416.07 456.62C1416.73 455.927 1417.06 454.939 1417.06 453.656V445.674H1420.02ZM1427.39 448.092V456.022C1427.39 456.559 1427.51 456.949 1427.76 457.192C1428.02 457.417 1428.45 457.53 1429.06 457.53H1430.88V460H1428.54C1427.2 460 1426.18 459.688 1425.47 459.064C1424.76 458.44 1424.4 457.426 1424.4 456.022V448.092H1422.71V445.674H1424.4V442.112H1427.39V445.674H1430.88V448.092H1427.39ZM1439.82 460.234C1438.47 460.234 1437.25 459.931 1436.16 459.324C1435.06 458.7 1434.21 457.833 1433.58 456.724C1432.96 455.597 1432.65 454.297 1432.65 452.824C1432.65 451.368 1432.97 450.077 1433.61 448.95C1434.25 447.823 1435.12 446.957 1436.23 446.35C1437.34 445.743 1438.58 445.44 1439.95 445.44C1441.32 445.44 1442.56 445.743 1443.67 446.35C1444.78 446.957 1445.65 447.823 1446.3 448.95C1446.94 450.077 1447.26 451.368 1447.26 452.824C1447.26 454.28 1446.93 455.571 1446.27 456.698C1445.61 457.825 1444.71 458.7 1443.57 459.324C1442.44 459.931 1441.19 460.234 1439.82 460.234ZM1439.82 457.66C1440.58 457.66 1441.29 457.478 1441.95 457.114C1442.63 456.75 1443.18 456.204 1443.59 455.476C1444.01 454.748 1444.22 453.864 1444.22 452.824C1444.22 451.784 1444.02 450.909 1443.62 450.198C1443.22 449.47 1442.69 448.924 1442.03 448.56C1441.37 448.196 1440.66 448.014 1439.9 448.014C1439.14 448.014 1438.43 448.196 1437.77 448.56C1437.13 448.924 1436.61 449.47 1436.23 450.198C1435.85 450.909 1435.66 451.784 1435.66 452.824C1435.66 454.367 1436.05 455.563 1436.83 456.412C1437.63 457.244 1438.63 457.66 1439.82 457.66ZM1453.15 447.754C1453.58 447.026 1454.16 446.463 1454.87 446.064C1455.6 445.648 1456.45 445.44 1457.44 445.44V448.508H1456.69C1455.53 448.508 1454.64 448.803 1454.04 449.392C1453.45 449.981 1453.15 451.004 1453.15 452.46V460H1450.19V445.674H1453.15V447.754ZM1465.37 460.234C1464.24 460.234 1463.23 460.035 1462.32 459.636C1461.44 459.22 1460.74 458.665 1460.22 457.972C1459.7 457.261 1459.42 456.473 1459.39 455.606H1462.45C1462.51 456.213 1462.79 456.724 1463.31 457.14C1463.85 457.539 1464.52 457.738 1465.31 457.738C1466.15 457.738 1466.79 457.582 1467.24 457.27C1467.71 456.941 1467.94 456.525 1467.94 456.022C1467.94 455.485 1467.68 455.086 1467.16 454.826C1466.66 454.566 1465.85 454.28 1464.74 453.968C1463.67 453.673 1462.79 453.387 1462.12 453.11C1461.44 452.833 1460.85 452.408 1460.35 451.836C1459.86 451.264 1459.62 450.51 1459.62 449.574C1459.62 448.811 1459.85 448.118 1460.3 447.494C1460.75 446.853 1461.39 446.35 1462.22 445.986C1463.07 445.622 1464.04 445.44 1465.13 445.44C1466.76 445.44 1468.07 445.856 1469.06 446.688C1470.06 447.503 1470.6 448.621 1470.67 450.042H1467.71C1467.65 449.401 1467.39 448.889 1466.93 448.508C1466.46 448.127 1465.83 447.936 1465.03 447.936C1464.25 447.936 1463.65 448.083 1463.23 448.378C1462.82 448.673 1462.61 449.063 1462.61 449.548C1462.61 449.929 1462.75 450.25 1463.03 450.51C1463.3 450.77 1463.64 450.978 1464.04 451.134C1464.44 451.273 1465.03 451.455 1465.81 451.68C1466.85 451.957 1467.7 452.243 1468.36 452.538C1469.03 452.815 1469.61 453.231 1470.1 453.786C1470.58 454.341 1470.83 455.077 1470.85 455.996C1470.85 456.811 1470.63 457.539 1470.18 458.18C1469.73 458.821 1469.08 459.324 1468.25 459.688C1467.44 460.052 1466.48 460.234 1465.37 460.234ZM1475.25 460.182C1474.71 460.182 1474.26 460 1473.9 459.636C1473.53 459.272 1473.35 458.821 1473.35 458.284C1473.35 457.747 1473.53 457.296 1473.9 456.932C1474.26 456.568 1474.71 456.386 1475.25 456.386C1475.77 456.386 1476.21 456.568 1476.58 456.932C1476.94 457.296 1477.12 457.747 1477.12 458.284C1477.12 458.821 1476.94 459.272 1476.58 459.636C1476.21 460 1475.77 460.182 1475.25 460.182ZM707.821 532.664V548.344C707.821 550.52 707.191 552.216 705.933 553.432C704.674 554.627 702.989 555.224 700.877 555.224C698.743 555.224 697.015 554.605 695.693 553.368C694.391 552.131 693.741 550.403 693.741 548.184H698.221C698.242 549.144 698.466 549.891 698.893 550.424C699.341 550.957 699.981 551.224 700.813 551.224C701.623 551.224 702.242 550.968 702.669 550.456C703.095 549.944 703.309 549.24 703.309 548.344V532.664H707.821ZM728.823 537.272V555H724.311V552.76C723.735 553.528 722.977 554.136 722.039 554.584C721.121 555.011 720.119 555.224 719.031 555.224C717.644 555.224 716.417 554.936 715.351 554.36C714.284 553.763 713.441 552.899 712.823 551.768C712.225 550.616 711.927 549.251 711.927 547.672V537.272H716.407V547.032C716.407 548.44 716.759 549.528 717.463 550.296C718.167 551.043 719.127 551.416 720.343 551.416C721.58 551.416 722.551 551.043 723.255 550.296C723.959 549.528 724.311 548.44 724.311 547.032V537.272H728.823ZM742.107 537.016C744.219 537.016 745.926 537.688 747.227 539.032C748.528 540.355 749.179 542.211 749.179 544.6V555H744.699V545.208C744.699 543.8 744.347 542.723 743.643 541.976C742.939 541.208 741.979 540.824 740.763 540.824C739.526 540.824 738.544 541.208 737.819 541.976C737.115 542.723 736.763 543.8 736.763 545.208V555H732.283V537.272H736.763V539.48C737.36 538.712 738.118 538.115 739.035 537.688C739.974 537.24 740.998 537.016 742.107 537.016ZM768.959 545.752C768.959 546.392 768.917 546.968 768.831 547.48H755.871C755.978 548.76 756.426 549.763 757.215 550.488C758.005 551.213 758.975 551.576 760.127 551.576C761.791 551.576 762.975 550.861 763.679 549.432H768.511C767.999 551.139 767.018 552.547 765.567 553.656C764.117 554.744 762.335 555.288 760.223 555.288C758.517 555.288 756.981 554.915 755.615 554.168C754.271 553.4 753.215 552.323 752.447 550.936C751.701 549.549 751.327 547.949 751.327 546.136C751.327 544.301 751.701 542.691 752.447 541.304C753.194 539.917 754.239 538.851 755.583 538.104C756.927 537.357 758.474 536.984 760.223 536.984C761.909 536.984 763.413 537.347 764.735 538.072C766.079 538.797 767.114 539.832 767.839 541.176C768.586 542.499 768.959 544.024 768.959 545.752ZM764.319 544.472C764.298 543.32 763.882 542.403 763.071 541.72C762.261 541.016 761.269 540.664 760.095 540.664C758.986 540.664 758.047 541.005 757.279 541.688C756.533 542.349 756.074 543.277 755.903 544.472H764.319ZM778.83 549.944C780.878 548.237 782.51 546.819 783.726 545.688C784.942 544.536 785.956 543.341 786.766 542.104C787.577 540.867 787.982 539.651 787.982 538.456C787.982 537.368 787.726 536.515 787.214 535.896C786.702 535.277 785.913 534.968 784.846 534.968C783.78 534.968 782.958 535.331 782.382 536.056C781.806 536.76 781.508 537.731 781.486 538.968H777.134C777.22 536.408 777.977 534.467 779.406 533.144C780.857 531.821 782.692 531.16 784.91 531.16C787.342 531.16 789.209 531.811 790.51 533.112C791.812 534.392 792.462 536.088 792.462 538.2C792.462 539.864 792.014 541.453 791.118 542.968C790.222 544.483 789.198 545.805 788.046 546.936C786.894 548.045 785.39 549.389 783.534 550.968H792.974V554.68H777.166V551.352L778.83 549.944ZM794.837 543.032C794.837 539.341 795.499 536.451 796.821 534.36C798.165 532.269 800.384 531.224 803.477 531.224C806.571 531.224 808.779 532.269 810.101 534.36C811.445 536.451 812.117 539.341 812.117 543.032C812.117 546.744 811.445 549.656 810.101 551.768C808.779 553.88 806.571 554.936 803.477 554.936C800.384 554.936 798.165 553.88 796.821 551.768C795.499 549.656 794.837 546.744 794.837 543.032ZM807.701 543.032C807.701 541.453 807.595 540.131 807.381 539.064C807.189 537.976 806.784 537.091 806.165 536.408C805.568 535.725 804.672 535.384 803.477 535.384C802.283 535.384 801.376 535.725 800.757 536.408C800.16 537.091 799.755 537.976 799.541 539.064C799.349 540.131 799.253 541.453 799.253 543.032C799.253 544.653 799.349 546.019 799.541 547.128C799.733 548.216 800.139 549.101 800.757 549.784C801.376 550.445 802.283 550.776 803.477 550.776C804.672 550.776 805.579 550.445 806.197 549.784C806.816 549.101 807.221 548.216 807.413 547.128C807.605 546.019 807.701 544.653 807.701 543.032ZM815.973 549.944C818.021 548.237 819.653 546.819 820.869 545.688C822.085 544.536 823.098 543.341 823.909 542.104C824.719 540.867 825.125 539.651 825.125 538.456C825.125 537.368 824.869 536.515 824.357 535.896C823.845 535.277 823.055 534.968 821.989 534.968C820.922 534.968 820.101 535.331 819.525 536.056C818.949 536.76 818.65 537.731 818.629 538.968H814.277C814.362 536.408 815.119 534.467 816.549 533.144C817.999 531.821 819.834 531.16 822.053 531.16C824.485 531.16 826.351 531.811 827.653 533.112C828.954 534.392 829.605 536.088 829.605 538.2C829.605 539.864 829.157 541.453 828.261 542.968C827.365 544.483 826.341 545.805 825.189 546.936C824.037 548.045 822.533 549.389 820.677 550.968H830.117V554.68H814.309V551.352L815.973 549.944ZM831.788 550.456V546.936L842.252 531.96H847.468V546.552H850.284V550.456H847.468V555H842.988V550.456H831.788ZM843.276 536.76L836.716 546.552H843.276V536.76ZM866.32 541.688V545.464H852.752V541.688H866.32ZM878.096 555.224C876.539 555.224 875.131 554.957 873.872 554.424C872.635 553.891 871.654 553.123 870.928 552.12C870.203 551.117 869.83 549.933 869.808 548.568H874.608C874.672 549.485 874.992 550.211 875.568 550.744C876.166 551.277 876.976 551.544 878 551.544C879.046 551.544 879.867 551.299 880.464 550.808C881.062 550.296 881.36 549.635 881.36 548.824C881.36 548.163 881.158 547.619 880.752 547.192C880.347 546.765 879.835 546.435 879.216 546.2C878.619 545.944 877.787 545.667 876.72 545.368C875.27 544.941 874.086 544.525 873.168 544.12C872.272 543.693 871.494 543.064 870.832 542.232C870.192 541.379 869.872 540.248 869.872 538.84C869.872 537.517 870.203 536.365 870.864 535.384C871.526 534.403 872.454 533.656 873.648 533.144C874.843 532.611 876.208 532.344 877.744 532.344C880.048 532.344 881.915 532.909 883.344 534.04C884.795 535.149 885.595 536.707 885.744 538.712H880.816C880.774 537.944 880.443 537.315 879.824 536.824C879.227 536.312 878.427 536.056 877.424 536.056C876.55 536.056 875.846 536.28 875.312 536.728C874.8 537.176 874.544 537.827 874.544 538.68C874.544 539.277 874.736 539.779 875.12 540.184C875.526 540.568 876.016 540.888 876.592 541.144C877.19 541.379 878.022 541.656 879.088 541.976C880.539 542.403 881.723 542.829 882.64 543.256C883.558 543.683 884.347 544.323 885.008 545.176C885.67 546.029 886 547.149 886 548.536C886 549.731 885.691 550.84 885.072 551.864C884.454 552.888 883.547 553.709 882.352 554.328C881.158 554.925 879.739 555.224 878.096 555.224ZM905.404 545.752C905.404 546.392 905.362 546.968 905.276 547.48H892.316C892.423 548.76 892.871 549.763 893.66 550.488C894.45 551.213 895.42 551.576 896.572 551.576C898.236 551.576 899.42 550.861 900.124 549.432H904.956C904.444 551.139 903.463 552.547 902.012 553.656C900.562 554.744 898.78 555.288 896.668 555.288C894.962 555.288 893.426 554.915 892.06 554.168C890.716 553.4 889.66 552.323 888.892 550.936C888.146 549.549 887.772 547.949 887.772 546.136C887.772 544.301 888.146 542.691 888.892 541.304C889.639 539.917 890.684 538.851 892.028 538.104C893.372 537.357 894.919 536.984 896.668 536.984C898.354 536.984 899.858 537.347 901.18 538.072C902.524 538.797 903.559 539.832 904.284 541.176C905.031 542.499 905.404 544.024 905.404 545.752ZM900.764 544.472C900.743 543.32 900.327 542.403 899.516 541.72C898.706 541.016 897.714 540.664 896.54 540.664C895.431 540.664 894.492 541.005 893.724 541.688C892.978 542.349 892.519 543.277 892.348 544.472H900.764ZM912.194 539.832C912.77 539.021 913.56 538.349 914.562 537.816C915.586 537.261 916.749 536.984 918.05 536.984C919.565 536.984 920.93 537.357 922.146 538.104C923.384 538.851 924.354 539.917 925.058 541.304C925.784 542.669 926.146 544.259 926.146 546.072C926.146 547.885 925.784 549.496 925.058 550.904C924.354 552.291 923.384 553.368 922.146 554.136C920.93 554.904 919.565 555.288 918.05 555.288C916.749 555.288 915.597 555.021 914.594 554.488C913.613 553.955 912.813 553.283 912.194 552.472V563.448H907.714V537.272H912.194V539.832ZM921.57 546.072C921.57 545.005 921.346 544.088 920.898 543.32C920.472 542.531 919.896 541.933 919.17 541.528C918.466 541.123 917.698 540.92 916.866 540.92C916.056 540.92 915.288 541.133 914.562 541.56C913.858 541.965 913.282 542.563 912.834 543.352C912.408 544.141 912.194 545.069 912.194 546.136C912.194 547.203 912.408 548.131 912.834 548.92C913.282 549.709 913.858 550.317 914.562 550.744C915.288 551.149 916.056 551.352 916.866 551.352C917.698 551.352 918.466 551.139 919.17 550.712C919.896 550.285 920.472 549.677 920.898 548.888C921.346 548.099 921.57 547.16 921.57 546.072ZM933.658 540.952V549.528C933.658 550.125 933.796 550.563 934.074 550.84C934.372 551.096 934.863 551.224 935.546 551.224H937.626V555H934.81C931.034 555 929.146 553.165 929.146 549.496V540.952H927.034V537.272H929.146V532.888H933.658V537.272H937.626V540.952H933.658ZM941.872 555.224C941.061 555.224 940.389 554.979 939.856 554.488C939.344 553.976 939.088 553.347 939.088 552.6C939.088 551.853 939.344 551.235 939.856 550.744C940.389 550.232 941.061 549.976 941.872 549.976C942.661 549.976 943.312 550.232 943.824 550.744C944.336 551.235 944.592 551.853 944.592 552.6C944.592 553.347 944.336 553.976 943.824 554.488C943.312 554.979 942.661 555.224 941.872 555.224ZM954.802 549.944C956.85 548.237 958.482 546.819 959.698 545.688C960.914 544.536 961.927 543.341 962.738 542.104C963.548 540.867 963.954 539.651 963.954 538.456C963.954 537.368 963.698 536.515 963.186 535.896C962.674 535.277 961.884 534.968 960.818 534.968C959.751 534.968 958.93 535.331 958.354 536.056C957.778 536.76 957.479 537.731 957.458 538.968H953.106C953.191 536.408 953.948 534.467 955.378 533.144C956.828 531.821 958.663 531.16 960.882 531.16C963.314 531.16 965.18 531.811 966.482 533.112C967.783 534.392 968.434 536.088 968.434 538.2C968.434 539.864 967.986 541.453 967.09 542.968C966.194 544.483 965.17 545.805 964.018 546.936C962.866 548.045 961.362 549.389 959.506 550.968H968.946V554.68H953.138V551.352L954.802 549.944ZM970.808 543.032C970.808 539.341 971.47 536.451 972.792 534.36C974.136 532.269 976.355 531.224 979.448 531.224C982.542 531.224 984.75 532.269 986.072 534.36C987.416 536.451 988.088 539.341 988.088 543.032C988.088 546.744 987.416 549.656 986.072 551.768C984.75 553.88 982.542 554.936 979.448 554.936C976.355 554.936 974.136 553.88 972.792 551.768C971.47 549.656 970.808 546.744 970.808 543.032ZM983.672 543.032C983.672 541.453 983.566 540.131 983.352 539.064C983.16 537.976 982.755 537.091 982.136 536.408C981.539 535.725 980.643 535.384 979.448 535.384C978.254 535.384 977.347 535.725 976.728 536.408C976.131 537.091 975.726 537.976 975.512 539.064C975.32 540.131 975.224 541.453 975.224 543.032C975.224 544.653 975.32 546.019 975.512 547.128C975.704 548.216 976.11 549.101 976.728 549.784C977.347 550.445 978.254 550.776 979.448 550.776C980.643 550.776 981.55 550.445 982.168 549.784C982.787 549.101 983.192 548.216 983.384 547.128C983.576 546.019 983.672 544.653 983.672 543.032ZM991.944 549.944C993.992 548.237 995.624 546.819 996.84 545.688C998.056 544.536 999.069 543.341 999.88 542.104C1000.69 540.867 1001.1 539.651 1001.1 538.456C1001.1 537.368 1000.84 536.515 1000.33 535.896C999.816 535.277 999.027 534.968 997.96 534.968C996.893 534.968 996.072 535.331 995.496 536.056C994.92 536.76 994.621 537.731 994.6 538.968H990.248C990.333 536.408 991.091 534.467 992.52 533.144C993.971 531.821 995.805 531.16 998.024 531.16C1000.46 531.16 1002.32 531.811 1003.62 533.112C1004.93 534.392 1005.58 536.088 1005.58 538.2C1005.58 539.864 1005.13 541.453 1004.23 542.968C1003.34 544.483 1002.31 545.805 1001.16 546.936C1000.01 548.045 998.504 549.389 996.648 550.968H1006.09V554.68H990.28V551.352L991.944 549.944ZM1007.76 550.456V546.936L1018.22 531.96H1023.44V546.552H1026.26V550.456H1023.44V555H1018.96V550.456H1007.76ZM1019.25 536.76L1012.69 546.552H1019.25V536.76Z" fill="white"/>
<rect x="172" y="240" width="1373" height="479" stroke="white" stroke-width="2"/>
<rect x="164.75" y="222.75" width="18.1931" height="31.7258" fill="white" stroke="white" stroke-width="1.5"/>
<rect x="1536.75" y="222.75" width="18.1931" height="31.7258" fill="white" stroke="white" stroke-width="1.5"/>
<rect x="164.75" y="704.523" width="18.1931" height="31.7258" fill="white" stroke="white" stroke-width="1.5"/>
<rect x="1536.75" y="703.75" width="18.1931" height="31.7258" fill="white" stroke="white" stroke-width="1.5"/>
</svg>
